# Blender v2.82 (sub 7) OBJ File: 'untitled.blend'
# www.blender.org
mtllib box.mtl
o Cube_Cube.001
v -1.000000 -1.000000 1.000000
v -1.000000 1.000000 1.000000
v -1.000000 -1.000000 -1.000000
v -1.000000 1.000000 -1.000000
v 1.000000 -1.000000 1.000000
v 1.000000 1.000000 1.000000
v 1.000000 -1.000000 -1.000000
v 1.000000 1.000000 -1.000000
v -1.000000 -0.788353 0.788353
v -1.000000 0.788353 0.788353
v -1.000000 0.788353 -0.788353
v -1.000000 -0.788353 -0.788353
v -0.788353 -0.788353 -1.000000
v -0.788353 0.788353 -1.000000
v 0.788353 0.788353 -1.000000
v 0.788353 -0.788353 -1.000000
v 1.000000 -0.788353 -0.788353
v 1.000000 0.788353 -0.788353
v 1.000000 0.788353 0.788353
v 1.000000 -0.788353 0.788353
v 0.788353 -0.788353 1.000000
v 0.788353 0.788353 1.000000
v -0.788353 0.788353 1.000000
v -0.788353 -0.788353 1.000000
v -0.788353 -1.000000 -0.788353
v 0.788353 -1.000000 -0.788353
v 0.788353 -1.000000 0.788353
v -0.788353 -1.000000 0.788353
v 0.788353 1.000000 -0.788353
v -0.788353 1.000000 -0.788353
v -0.788353 1.000000 0.788353
v 0.788353 1.000000 0.788353
v -0.868488 0.788353 0.788353
v -0.868488 -0.788353 0.788353
v -0.868488 0.788353 -0.788353
v -0.868488 -0.788353 -0.788353
v -0.788353 0.788353 -0.868488
v -0.788353 -0.788353 -0.868488
v 0.788353 0.788353 -0.868488
v 0.788353 -0.788353 -0.868488
v 0.868488 0.788353 -0.788353
v 0.868488 -0.788353 -0.788353
v 0.868488 0.788353 0.788353
v 0.868488 -0.788353 0.788353
v 0.788353 0.788353 0.868488
v 0.788353 -0.788353 0.868488
v -0.788353 0.788353 0.868488
v -0.788353 -0.788353 0.868488
v 0.788353 -0.868488 -0.788353
v -0.788353 -0.868488 -0.788353
v 0.788353 -0.868488 0.788353
v -0.788353 -0.868488 0.788353
v -0.788353 0.868488 -0.788353
v 0.788353 0.868488 -0.788353
v -0.788353 0.868488 0.788353
v 0.788353 0.868488 0.788353
vt 0.894176 0.894176
vt 0.105824 0.894176
vt 0.105824 0.105824
vt 0.894176 0.105824
vt 0.105824 0.894176
vt 0.894176 0.894176
vt 0.894176 0.105824
vt 0.105824 0.105824
vt 0.894176 0.105824
vt 0.894176 0.894176
vt 0.105824 0.894176
vt 0.105824 0.105824
vt 0.894176 0.105824
vt 0.894176 0.894176
vt 0.105824 0.894176
vt 0.105824 0.105824
vt 0.105824 0.105824
vt 0.105824 0.894176
vt 0.894176 0.894176
vt 0.894176 0.105824
vt 0.105824 0.105824
vt 0.105824 0.894176
vt 0.894176 0.894176
vt 0.894176 0.105824
vt 1.000000 0.105824
vt 1.000000 0.894176
vt 0.934244 0.894176
vt 0.934244 0.105824
vt 0.000000 1.000000
vt 0.074268 0.925732
vt 0.074268 0.074268
vt 0.000000 0.000000
vt 1.000000 1.000000
vt 0.925732 0.925732
vt 1.000000 0.000000
vt 0.925732 0.074268
vt 0.000000 0.105824
vt 0.000000 0.894176
vt 0.065756 0.894176
vt 0.065756 0.105824
vt 0.000000 1.000000
vt 0.074268 0.925732
vt 0.074268 0.074268
vt 0.000000 0.000000
vt 1.000000 1.000000
vt 0.925732 0.925732
vt 1.000000 0.000000
vt 0.925732 0.074268
vt 0.105824 1.000000
vt 0.894176 1.000000
vt 0.894176 0.934244
vt 0.105824 0.934244
vt 0.925732 0.925732
vt 0.925732 0.074268
vt 0.000000 1.000000
vt 0.074268 0.925732
vt 0.000000 0.000000
vt 0.074268 0.074268
vt 0.105824 0.000000
vt 0.894176 0.000000
vt 0.894176 0.065756
vt 0.105824 0.065756
vt 1.000000 1.000000
vt 0.925732 0.925732
vt 0.925732 0.074268
vt 1.000000 0.000000
vt 0.074268 0.925732
vt 0.074268 0.074268
vt 0.105824 1.000000
vt 0.894176 1.000000
vt 0.894176 0.934244
vt 0.105824 0.934244
vt 1.000000 1.000000
vt 0.925732 0.925732
vt 0.074268 0.925732
vt 0.000000 1.000000
vt 0.925732 0.074268
vt 0.074268 0.074268
vt 0.105824 0.000000
vt 0.894176 0.000000
vt 0.894176 0.065756
vt 0.105824 0.065756
vt 0.074268 0.925732
vt 0.925732 0.925732
vt 0.000000 0.000000
vt 0.074268 0.074268
vt 1.000000 0.000000
vt 0.925732 0.074268
vt 0.000000 0.105824
vt 0.000000 0.894176
vt 0.065756 0.894176
vt 0.065756 0.105824
vt 1.000000 0.105824
vt 1.000000 0.894176
vt 0.934244 0.894176
vt 0.934244 0.105824
vt 0.105824 1.000000
vt 0.894176 1.000000
vt 0.894176 0.934244
vt 0.105824 0.934244
vt 0.000000 0.105824
vt 0.000000 0.894176
vt 0.065756 0.894176
vt 0.065756 0.105824
vt 0.000000 0.105824
vt 0.065756 0.105824
vt 1.000000 0.105824
vt 0.934244 0.105824
vt 0.105824 0.000000
vt 0.894176 0.000000
vt 0.894176 0.065756
vt 0.105824 0.065756
vt 1.000000 0.894176
vt 1.000000 0.105824
vt 0.934244 0.105824
vt 0.934244 0.894176
vt 0.894176 0.000000
vt 0.105824 0.000000
vt 0.105824 0.065756
vt 0.894176 0.065756
vt 0.105824 1.000000
vt 0.105824 0.934244
vt 0.000000 0.894176
vt 0.065756 0.894176
vt 1.000000 0.894176
vt 1.000000 0.105824
vt 0.934244 0.105824
vt 0.934244 0.894176
vt 0.105824 0.000000
vt 0.105824 0.065756
vt 0.894176 1.000000
vt 0.105824 1.000000
vt 0.105824 0.934244
vt 0.894176 0.934244
vt 0.000000 0.894176
vt 0.000000 0.105824
vt 0.065756 0.105824
vt 0.065756 0.894176
vt 0.894176 1.000000
vt 0.894176 0.934244
vt 1.000000 0.894176
vt 0.934244 0.894176
vt 0.894176 0.000000
vt 0.894176 0.065756
vn 0.0000 1.0000 0.0000
vn 0.0000 -1.0000 0.0000
vn 0.0000 0.0000 1.0000
vn 1.0000 0.0000 0.0000
vn 0.0000 0.0000 -1.0000
vn -1.0000 0.0000 0.0000
usemtl Material
s off
f 54/1/1 53/2/1 55/3/1 56/4/1
f 50/5/2 49/6/2 51/7/2 52/8/2
f 46/9/3 45/10/3 47/11/3 48/12/3
f 42/13/4 41/14/4 43/15/4 44/16/4
f 38/17/5 37/18/5 39/19/5 40/20/5
f 34/21/6 33/22/6 35/23/6 36/24/6
f 13/25/4 14/26/4 37/27/4 38/28/4
f 2/29/6 10/30/6 9/31/6 1/32/6
f 4/33/6 11/34/6 10/30/6 2/29/6
f 3/35/6 12/36/6 11/34/6 4/33/6
f 1/32/6 9/31/6 12/36/6 3/35/6
f 9/37/5 10/38/5 33/39/5 34/40/5
f 4/41/5 14/42/5 13/43/5 3/44/5
f 8/45/5 15/46/5 14/42/5 4/41/5
f 7/47/5 16/48/5 15/46/5 8/45/5
f 3/44/5 13/43/5 16/48/5 7/47/5
f 32/49/6 29/50/6 54/51/6 56/52/6
f 8/45/4 18/53/4 17/54/4 7/47/4
f 6/55/4 19/56/4 18/53/4 8/45/4
f 5/57/4 20/58/4 19/56/4 6/55/4
f 7/47/4 17/54/4 20/58/4 5/57/4
f 28/59/4 25/60/4 50/61/4 52/62/4
f 6/63/3 22/64/3 21/65/3 5/66/3
f 2/29/3 23/67/3 22/64/3 6/63/3
f 1/32/3 24/68/3 23/67/3 2/29/3
f 5/66/3 21/65/3 24/68/3 1/32/3
f 31/69/5 32/70/5 56/71/5 55/72/5
f 7/73/2 26/74/2 25/75/2 3/76/2
f 5/66/2 27/77/2 26/74/2 7/73/2
f 1/32/2 28/78/2 27/77/2 5/66/2
f 3/76/2 25/75/2 28/78/2 1/32/2
f 24/79/1 21/80/1 46/81/1 48/82/1
f 4/41/1 30/83/1 29/84/1 8/45/1
f 2/85/1 31/86/1 30/83/1 4/41/1
f 6/87/1 32/88/1 31/86/1 2/85/1
f 8/45/1 29/84/1 32/88/1 6/87/1
f 10/89/2 11/90/2 35/91/2 33/92/2
f 17/93/3 18/94/3 41/95/3 42/96/3
f 14/97/2 15/98/2 39/99/2 37/100/2
f 21/101/6 22/102/6 45/103/6 46/104/6
f 11/90/3 12/105/3 36/106/3 35/91/3
f 18/94/2 19/107/2 43/108/2 41/95/2
f 25/109/3 26/110/3 49/111/3 50/112/3
f 15/113/6 16/114/6 40/115/6 39/116/6
f 22/117/2 23/118/2 47/119/2 45/120/2
f 29/50/3 30/121/3 53/122/3 54/51/3
f 12/123/1 9/37/1 34/40/1 36/124/1
f 19/125/5 20/126/5 44/127/5 43/128/5
f 26/110/6 27/129/6 51/130/6 49/111/6
f 16/131/1 13/132/1 38/133/1 40/134/1
f 23/135/4 24/136/4 48/137/4 47/138/4
f 30/139/4 31/69/4 55/72/4 53/140/4
f 20/126/1 17/141/1 42/142/1 44/127/1
f 27/143/5 28/59/5 52/62/5 51/144/5
