# Blender v2.82 (sub 7) OBJ File: ''
# www.blender.org
mtllib coin.mtl
o Cylinder
v -0.000001 1.000000 0.065733
v -0.000001 1.000000 -0.065733
v 0.258819 0.965926 0.065733
v 0.258818 0.965926 -0.065733
v 0.500000 0.866026 0.065733
v 0.499999 0.866026 -0.065733
v 0.707106 0.707107 0.065733
v 0.707106 0.707107 -0.065733
v 0.866025 0.500000 0.065733
v 0.866025 0.500000 -0.065734
v 0.965926 0.258820 0.065733
v 0.965926 0.258820 -0.065734
v 1.000000 0.000001 0.065733
v 1.000000 0.000001 -0.065734
v 0.965926 -0.258818 0.065733
v 0.965926 -0.258818 -0.065734
v 0.866026 -0.499999 0.065733
v 0.866026 -0.499999 -0.065733
v 0.707107 -0.707106 0.065733
v 0.707107 -0.707106 -0.065733
v 0.500001 -0.866025 0.065733
v 0.500001 -0.866025 -0.065733
v 0.258820 -0.965926 0.065733
v 0.258820 -0.965926 -0.065733
v 0.000001 -1.000000 0.065733
v 0.000001 -1.000000 -0.065733
v -0.258818 -0.965926 0.065733
v -0.258818 -0.965926 -0.065733
v -0.499999 -0.866026 0.065733
v -0.499999 -0.866026 -0.065733
v -0.707106 -0.707108 0.065733
v -0.707106 -0.707108 -0.065733
v -0.866025 -0.500001 0.065734
v -0.866025 -0.500001 -0.065733
v -0.965926 -0.258820 0.065734
v -0.965926 -0.258820 -0.065733
v -1.000000 -0.000001 0.065734
v -1.000000 -0.000001 -0.065733
v -0.965926 0.258818 0.065734
v -0.965926 0.258818 -0.065733
v -0.866026 0.499999 0.065733
v -0.866026 0.499999 -0.065733
v -0.707108 0.707106 0.065733
v -0.707108 0.707106 -0.065733
v -0.500001 0.866025 0.065733
v -0.500001 0.866025 -0.065733
v -0.258820 0.965926 0.065733
v -0.258820 0.965926 -0.065733
vt 0.437484 0.579367
vt 0.436447 0.608210
vt 0.431143 0.608879
vt 0.432300 0.580056
vt 0.433212 0.637442
vt 0.427780 0.638088
vt 0.427805 0.667003
vt 0.422238 0.667625
vt 0.420219 0.696836
vt 0.414507 0.697431
vt 0.410396 0.726878
vt 0.404528 0.727444
vt 0.398198 0.757067
vt 0.392160 0.757603
vt 0.383358 0.787335
vt 0.377127 0.787837
vt 0.365348 0.817607
vt 0.358881 0.818074
vt 0.343041 0.847793
vt 0.336253 0.848220
vt 0.313431 0.877744
vt 0.306056 0.878124
vt 0.254671 0.906767
vt 0.234951 0.906757
vt 0.238081 0.242509
vt 0.264159 0.250358
vt 0.260045 0.251359
vt 0.233772 0.243541
vt 0.308511 0.278345
vt 0.304176 0.279307
vt 0.335255 0.305678
vt 0.330837 0.306606
vt 0.356135 0.332756
vt 0.351652 0.333653
vt 0.373525 0.359708
vt 0.368979 0.360577
vt 0.388350 0.386619
vt 0.383742 0.387462
vt 0.401043 0.413563
vt 0.396371 0.414381
vt 0.411811 0.440605
vt 0.407071 0.441399
vt 0.420739 0.467805
vt 0.415925 0.468577
vt 0.427835 0.495224
vt 0.422942 0.495974
vt 0.433055 0.522920
vt 0.428075 0.523649
vt 0.689648 0.940077
vt 0.639103 0.906577
vt 0.595192 0.851123
vt 0.560906 0.777493
vt 0.538583 0.690704
vt 0.529743 0.596673
vt 0.534988 0.501806
vt 0.553963 0.412569
vt 0.585372 0.335042
vt 0.627077 0.274510
vt 0.676234 0.235097
vt 0.729495 0.219490
vt 0.783228 0.228752
vt 0.833772 0.262251
vt 0.877684 0.317705
vt 0.911970 0.391335
vt 0.934293 0.478124
vt 0.943134 0.572155
vt 0.937888 0.667022
vt 0.918913 0.756260
vt 0.887504 0.833787
vt 0.845799 0.894319
vt 0.796642 0.933731
vt 0.743381 0.949339
vt 0.436313 0.550949
vt 0.431237 0.551658
vt 0.208802 0.934664
vt 0.158461 0.899170
vt 0.115039 0.841883
vt 0.081494 0.766706
vt 0.060113 0.678762
vt 0.052353 0.584045
vt 0.058742 0.489009
vt 0.078846 0.400131
vt 0.111294 0.323469
vt 0.153875 0.264245
vt 0.203686 0.226496
vt 0.257335 0.212796
vt 0.311164 0.224076
vt 0.361505 0.259570
vt 0.404927 0.316857
vt 0.438472 0.392034
vt 0.459853 0.479978
vt 0.467613 0.574695
vt 0.461223 0.669731
vt 0.441120 0.758609
vt 0.408672 0.835272
vt 0.366091 0.894495
vt 0.316279 0.932244
vt 0.262631 0.945944
vn 0.1305 0.9914 0.0000
vn 0.3827 0.9239 -0.0000
vn 0.6088 0.7934 0.0000
vn 0.7934 0.6088 0.0000
vn 0.9239 0.3827 0.0000
vn 0.9914 0.1305 -0.0000
vn 0.9914 -0.1305 0.0000
vn 0.9239 -0.3827 0.0000
vn 0.7934 -0.6088 0.0000
vn 0.6088 -0.7934 0.0000
vn 0.3827 -0.9239 -0.0000
vn 0.1305 -0.9914 0.0000
vn -0.1305 -0.9914 -0.0000
vn -0.3827 -0.9239 0.0000
vn -0.6088 -0.7934 0.0000
vn -0.7934 -0.6088 0.0000
vn -0.9239 -0.3827 0.0000
vn -0.9914 -0.1305 0.0000
vn -0.9914 0.1305 -0.0000
vn -0.9239 0.3827 0.0000
vn -0.7934 0.6088 0.0000
vn -0.6088 0.7934 0.0000
vn -0.0000 -0.0000 -1.0000
vn -0.3827 0.9239 0.0000
vn -0.1305 0.9914 -0.0000
vn 0.0000 0.0000 1.0000
usemtl Material
s off
f 1/1/1 3/2/1 4/3/1 2/4/1
f 3/2/2 5/5/2 6/6/2 4/3/2
f 5/5/3 7/7/3 8/8/3 6/6/3
f 7/7/4 9/9/4 10/10/4 8/8/4
f 9/9/5 11/11/5 12/12/5 10/10/5
f 11/11/6 13/13/6 14/14/6 12/12/6
f 13/13/7 15/15/7 16/16/7 14/14/7
f 15/15/8 17/17/8 18/18/8 16/16/8
f 17/17/9 19/19/9 20/20/9 18/18/9
f 19/19/10 21/21/10 22/22/10 20/20/10
f 21/21/11 23/23/11 24/24/11 22/22/11
f 23/25/12 25/26/12 26/27/12 24/28/12
f 25/26/13 27/29/13 28/30/13 26/27/13
f 27/29/14 29/31/14 30/32/14 28/30/14
f 29/31/15 31/33/15 32/34/15 30/32/15
f 31/33/16 33/35/16 34/36/16 32/34/16
f 33/35/17 35/37/17 36/38/17 34/36/17
f 35/37/18 37/39/18 38/40/18 36/38/18
f 37/39/19 39/41/19 40/42/19 38/40/19
f 39/41/20 41/43/20 42/44/20 40/42/20
f 41/43/21 43/45/21 44/46/21 42/44/21
f 43/45/22 45/47/22 46/48/22 44/46/22
f 4/49/23 6/50/23 8/51/23 10/52/23 12/53/23 14/54/23 16/55/23 18/56/23 20/57/23 22/58/23 24/59/23 26/60/23 28/61/23 30/62/23 32/63/23 34/64/23 36/65/23 38/66/23 40/67/23 42/68/23 44/69/23 46/70/23 48/71/23 2/72/23
f 45/47/24 47/73/24 48/74/24 46/48/24
f 47/73/25 1/1/25 2/4/25 48/74/25
f 1/75/26 47/76/26 45/77/26 43/78/26 41/79/26 39/80/26 37/81/26 35/82/26 33/83/26 31/84/26 29/85/26 27/86/26 25/87/26 23/88/26 21/89/26 19/90/26 17/91/26 15/92/26 13/93/26 11/94/26 9/95/26 7/96/26 5/97/26 3/98/26
