# Blender v2.79 (sub 0) OBJ File: ''
# www.blender.org
mtllib fireelement.mtl
o Icosphere_Icosphere.004
v 0.000000 -1.000000 -0.000000
v 0.723600 -0.447215 0.525720
v -0.276385 -0.447215 0.850640
v 0.723600 -0.447215 -0.525720
v -0.894425 -0.447215 -0.000000
v -0.276385 -0.447215 -0.850640
v 0.894425 0.447215 0.000000
v 0.276385 0.447215 0.850640
v -0.723600 0.447215 0.525720
v -0.723600 0.447215 -0.525720
v 0.276385 0.447215 -0.850640
v 0.000000 1.000000 0.000000
vt 0.000000 0.000000
vt 1.000000 0.000000
vt 1.000000 1.000000
vt 0.000000 0.000000
vt 1.000000 0.000000
vt 1.000000 1.000000
vt 1.000000 0.000000
vt 1.000000 1.000000
vt 1.000000 0.000000
vt 1.000000 1.000000
vt 1.000000 0.000000
vt 1.000000 0.000000
vt 1.000000 1.000000
vt 0.000000 0.000000
vt 1.000000 1.000000
vt 0.000000 0.000000
vt 1.000000 1.000000
vt 0.000000 0.000000
vt 1.000000 1.000000
vt 0.000000 0.000000
vt 1.000000 1.000000
vt 1.000000 0.000000
vt 1.000000 0.000000
vt 1.000000 0.000000
vt 1.000000 0.000000
vt 1.000000 0.000000
vt 0.000000 0.000000
vt 1.000000 1.000000
vt 0.000000 0.000000
vt 0.000000 0.000000
vt 0.000000 0.000000
vt 0.000000 0.000000
vn 0.1876 -0.7947 0.5774
vn 0.6071 -0.7947 -0.0000
vn -0.4911 -0.7947 0.3568
vn -0.4911 -0.7947 -0.3568
vn 0.1876 -0.7947 -0.5774
vn 0.9822 -0.1876 -0.0000
vn 0.3035 -0.1876 0.9342
vn -0.7946 -0.1876 0.5774
vn -0.7946 -0.1876 -0.5774
vn 0.3035 -0.1876 -0.9342
vn 0.7946 0.1876 0.5774
vn -0.3035 0.1876 0.9342
vn -0.9822 0.1876 0.0000
vn -0.3035 0.1876 -0.9342
vn 0.7946 0.1876 -0.5774
vn 0.4911 0.7947 0.3568
vn -0.1876 0.7947 0.5774
vn -0.6071 0.7947 0.0000
vn -0.1876 0.7947 -0.5774
vn 0.4911 0.7947 -0.3568
usemtl None
s 1
f 1/1/1 2/2/1 3/3/1
f 2/4/2 1/5/2 4/6/2
f 1/1/3 3/7/3 5/8/3
f 1/1/4 5/9/4 6/10/4
f 1/1/5 6/11/5 4/6/5
f 2/4/6 4/12/6 7/13/6
f 3/14/7 2/2/7 8/15/7
f 5/16/8 3/7/8 9/17/8
f 6/18/9 5/9/9 10/19/9
f 4/20/10 6/11/10 11/21/10
f 2/4/11 7/22/11 8/15/11
f 3/14/12 8/23/12 9/17/12
f 5/16/13 9/24/13 10/19/13
f 6/18/14 10/25/14 11/21/14
f 4/20/15 11/26/15 7/13/15
f 8/27/16 7/22/16 12/28/16
f 9/29/17 8/23/17 12/28/17
f 10/30/18 9/24/18 12/28/18
f 11/31/19 10/25/19 12/28/19
f 7/32/20 11/26/20 12/28/20
