# Blender v2.82 (sub 7) OBJ File: ''
# www.blender.org
mtllib marble_cube.mtl
o Cube_Cube.001
v -1.000000 -1.000000 1.000000
v -1.000000 1.000000 1.000000
v -1.000000 -1.000000 -1.000000
v -1.000000 1.000000 -1.000000
v 1.000000 -1.000000 1.000000
v 1.000000 1.000000 1.000000
v 1.000000 -1.000000 -1.000000
v 1.000000 1.000000 -1.000000
v 0.966667 -1.000000 -1.000000
v -0.966667 -1.000000 -1.000000
v -0.966667 1.000000 -1.000000
v 0.966667 1.000000 -1.000000
v -0.966667 -1.000000 1.000000
v 0.966667 -1.000000 1.000000
v 0.966667 1.000000 1.000000
v -0.966667 1.000000 1.000000
v -1.000000 -0.966667 1.000000
v -1.000000 0.966667 1.000000
v -1.000000 0.966667 -1.000000
v -1.000000 -0.966667 -1.000000
v 1.000000 0.966667 -1.000000
v 1.000000 -0.966667 -1.000000
v 1.000000 0.966667 1.000000
v 1.000000 -0.966667 1.000000
v 0.966667 0.966667 1.000000
v 0.966667 -0.966667 1.000000
v -0.966667 0.966667 1.000000
v -0.966667 -0.966667 1.000000
v -0.966667 0.966667 -1.000000
v -0.966667 -0.966667 -1.000000
v 0.966667 0.966667 -1.000000
v 0.966667 -0.966667 -1.000000
v -1.000000 -1.000000 -0.966667
v -1.000000 -1.000000 0.966667
v -1.000000 1.000000 0.966667
v -1.000000 1.000000 -0.966667
v 1.000000 -1.000000 0.966667
v 1.000000 -1.000000 -0.966667
v 1.000000 1.000000 -0.966667
v 1.000000 1.000000 0.966667
v 0.966667 1.000000 -0.966667
v 0.966667 1.000000 0.966667
v -0.966667 1.000000 -0.966667
v -0.966667 1.000000 0.966667
v -0.966667 -1.000000 -0.966667
v -0.966667 -1.000000 0.966667
v 0.966667 -1.000000 -0.966667
v 0.966667 -1.000000 0.966667
v 1.000000 -0.966667 -0.966667
v 1.000000 -0.966667 0.966667
v 1.000000 0.966667 -0.966667
v 1.000000 0.966667 0.966667
v -1.000000 -0.966667 0.966667
v -1.000000 -0.966667 -0.966667
v -1.000000 0.966667 0.966667
v -1.000000 0.966667 -0.966667
vt 0.338889 0.005556
vt 0.333333 0.005556
vt 0.333333 0.000000
vt 0.338889 0.000000
vt 0.005556 0.338889
vt 0.000000 0.338889
vt 0.000000 0.333333
vt 0.005556 0.333333
vt 0.005556 0.005556
vt 0.000000 0.005556
vt 0.000000 0.000000
vt 0.005556 0.000000
vt 0.661111 0.338889
vt 0.661111 0.333333
vt 0.666667 0.333333
vt 0.666667 0.338889
vt 0.672222 0.005556
vt 0.666667 0.005556
vt 0.666667 0.000000
vt 0.672222 0.000000
vt 0.005556 0.994444
vt 0.005556 1.000000
vt 0.000000 1.000000
vt 0.000000 0.994444
vt 0.005556 0.666667
vt 0.005556 0.672222
vt 0.000000 0.672222
vt 0.000000 0.666667
vt 1.000000 0.005556
vt 0.994444 0.005556
vt 0.994444 0.000000
vt 1.000000 0.000000
vt 0.333333 0.338889
vt 0.333333 0.333333
vt 0.338889 0.333333
vt 0.338889 0.338889
vt 0.005556 0.666667
vt 0.000000 0.666667
vt 0.000000 0.661111
vt 0.005556 0.661111
vt 0.333333 0.661111
vt 0.327778 0.661111
vt 0.327778 0.338889
vt 0.333333 0.338889
vt 0.333333 0.666667
vt 0.327778 0.666667
vt 0.338889 0.666667
vt 0.338889 0.661111
vt 0.661111 0.661111
vt 0.661111 0.666667
vt 0.333333 0.666667
vt 0.333333 0.661111
vt 0.666667 0.661111
vt 0.666667 0.666667
vt 0.333333 0.005556
vt 0.327778 0.005556
vt 0.327778 0.000000
vt 0.333333 0.000000
vt 0.327778 0.333333
vt 0.333333 0.333333
vt 0.666667 0.005556
vt 0.661111 0.005556
vt 0.661111 0.000000
vt 0.666667 0.000000
vt 0.661111 0.333333
vt 0.338889 0.333333
vt 0.338889 0.327778
vt 0.661111 0.327778
vt 0.666667 0.333333
vt 0.666667 0.327778
vt 0.005556 0.327778
vt 0.327778 0.327778
vt 0.333333 0.327778
vt 0.994444 0.333333
vt 0.672222 0.333333
vt 0.672222 0.327778
vt 0.994444 0.327778
vt 1.000000 0.333333
vt 1.000000 0.327778
vt 0.333333 0.672222
vt 0.333333 0.994444
vt 0.327778 0.994444
vt 0.327778 0.672222
vt 0.333333 0.666667
vt 0.327778 0.666667
vt 0.333333 1.000000
vt 0.327778 1.000000
vt 0.666667 0.333333
vt 0.666667 0.327778
vt 0.000000 0.327778
vt 0.333333 0.333333
vt 0.333333 0.327778
vn -1.0000 0.0000 0.0000
vn -0.7071 0.7071 0.0000
vn -0.5773 0.5773 -0.5773
vn -0.7071 0.0000 -0.7071
vn 0.0000 0.0000 -1.0000
vn 0.0000 0.7071 -0.7071
vn 0.5773 0.5773 -0.5773
vn 0.7071 0.0000 -0.7071
vn 1.0000 0.0000 0.0000
vn 0.7071 0.7071 0.0000
vn 0.5773 0.5773 0.5773
vn 0.7071 0.0000 0.7071
vn 0.0000 0.0000 1.0000
vn 0.0000 0.7071 0.7071
vn -0.5773 0.5773 0.5773
vn -0.7071 0.0000 0.7071
vn 0.0000 -1.0000 0.0000
vn 0.7071 -0.7071 0.0000
vn 0.5773 -0.5773 0.5773
vn 0.0000 -0.7071 0.7071
vn 0.0000 1.0000 0.0000
vn -0.7071 -0.7071 0.0000
vn -0.5773 -0.5773 0.5773
vn 0.0000 -0.7071 -0.7071
vn -0.5773 -0.5773 -0.5773
vn 0.5773 -0.5773 -0.5773
usemtl Material
s 1
f 56/1/1 36/2/2 4/3/3 19/4/4
f 31/5/5 12/6/6 8/7/7 21/8/8
f 52/9/9 40/10/10 6/11/11 23/12/12
f 27/13/13 16/14/14 2/15/15 18/16/16
f 48/17/17 37/18/18 5/19/19 14/20/20
f 44/21/21 35/22/2 2/23/15 16/24/14
f 40/25/10 42/26/21 15/27/14 6/28/11
f 42/26/21 44/21/21 16/24/14 15/27/14
f 34/29/22 46/30/17 13/31/20 1/32/23
f 46/30/17 48/17/17 14/20/20 13/31/20
f 23/33/12 6/34/11 15/35/14 25/36/13
f 25/36/13 15/35/14 16/14/14 27/13/13
f 19/37/4 4/38/3 11/39/6 29/40/5
f 29/40/5 11/39/6 12/6/6 31/5/5
f 10/41/24 30/42/5 32/43/5 9/44/24
f 30/42/5 29/40/5 31/5/5 32/43/5
f 3/45/25 20/46/4 30/42/5 10/41/24
f 20/46/4 19/37/4 29/40/5 30/42/5
f 14/47/20 26/48/13 28/49/13 13/50/20
f 26/48/13 25/36/13 27/13/13 28/49/13
f 5/51/19 24/52/12 26/48/13 14/47/20
f 24/52/12 23/33/12 25/36/13 26/48/13
f 13/50/20 28/49/13 17/53/16 1/54/23
f 28/49/13 27/13/13 18/16/16 17/53/16
f 37/55/18 50/56/9 24/57/12 5/58/19
f 50/56/9 52/9/9 23/12/12 24/57/12
f 9/44/24 32/43/5 22/59/8 7/60/26
f 32/43/5 31/5/5 21/8/8 22/59/8
f 33/61/22 54/62/1 20/63/4 3/64/25
f 54/62/1 56/1/1 19/4/4 20/63/4
f 17/65/16 18/66/16 55/67/1 53/68/1
f 53/68/1 55/67/1 56/1/1 54/62/1
f 1/69/23 17/65/16 53/68/1 34/70/22
f 34/70/22 53/68/1 54/62/1 33/61/22
f 22/59/8 21/8/8 51/71/9 49/72/9
f 49/72/9 51/71/9 52/9/9 50/56/9
f 7/60/26 22/59/8 49/72/9 38/73/18
f 38/73/18 49/72/9 50/56/9 37/55/18
f 10/74/24 9/75/24 47/76/17 45/77/17
f 45/77/17 47/76/17 48/17/17 46/30/17
f 3/78/25 10/74/24 45/77/17 33/79/22
f 33/79/22 45/77/17 46/30/17 34/29/22
f 12/80/6 11/81/6 43/82/21 41/83/21
f 41/83/21 43/82/21 44/21/21 42/26/21
f 8/84/7 12/80/6 41/83/21 39/85/10
f 39/85/10 41/83/21 42/26/21 40/25/10
f 11/81/6 4/86/3 36/87/2 43/82/21
f 43/82/21 36/87/2 35/22/2 44/21/21
f 9/75/24 7/88/26 38/89/18 47/76/17
f 47/76/17 38/89/18 37/18/18 48/17/17
f 21/8/8 8/7/7 39/90/10 51/71/9
f 51/71/9 39/90/10 40/10/10 52/9/9
f 18/66/16 2/91/15 35/92/2 55/67/1
f 55/67/1 35/92/2 36/2/2 56/1/1
