# Blender v2.82 (sub 7) OBJ File: ''
# www.blender.org
mtllib player.mtl
o Cube_Cube.001
v -0.115427 0.000000 0.115427
v -0.115427 2.000000 0.115427
v -0.115427 0.000000 -0.115427
v -0.115427 2.000000 -0.115427
v 0.115427 0.000000 0.115427
v 0.115427 2.000000 0.115427
v 0.115427 0.000000 -0.115427
v 0.115427 2.000000 -0.115427
v -0.115427 1.316835 -0.107595
v -0.115427 1.316835 0.107595
v -0.115427 1.528436 0.107595
v -0.115427 1.528436 -0.107595
v 0.115427 1.528436 -0.107595
v 0.115427 1.316835 -0.107595
v 0.115427 1.316835 0.107595
v 0.115427 1.528436 0.107595
v 0.758006 1.316835 0.107595
v 0.758006 1.528436 0.107595
v 0.758006 1.528436 -0.107595
v 0.758006 1.316835 -0.107595
v -0.758006 1.316835 -0.107595
v -0.758006 1.528436 -0.107595
v -0.758006 1.528436 0.107595
v -0.758006 1.316835 0.107595
v -0.096763 0.688270 0.093719
v 0.035775 0.820808 0.093719
v -0.096763 0.688270 -0.093719
v 0.035775 0.820808 -0.093719
v 0.035775 0.555731 0.093719
v 0.168314 0.688270 0.093719
v 0.035775 0.555731 -0.093719
v 0.168314 0.688270 -0.093719
v -0.494523 1.086030 -0.093719
v -0.494523 1.086030 0.093719
v -0.361985 1.218569 0.093719
v -0.361985 1.218569 -0.093719
v 0.519064 0.337520 -0.093719
v 0.386525 0.204982 -0.093719
v 0.386525 0.204982 0.093719
v 0.519064 0.337520 0.093719
vt 0.442287 0.976476
vt 0.557713 0.976476
vt 0.553798 0.740694
vt 0.446202 0.740694
vt 0.437289 -0.023524
vt 0.437289 0.976476
vt 0.552716 0.976476
vt 0.552716 -0.023524
vt 0.557713 -0.023524
vt 0.557713 0.976476
vt 0.553798 0.740694
vt 0.553798 0.634894
vt 0.552716 -0.023524
vt 0.552716 0.976476
vt 0.437289 0.976476
vt 0.437289 -0.023524
vt 0.437289 0.557713
vt 0.552716 0.557713
vt 0.552716 0.442287
vt 0.437289 0.442287
vt 0.552716 0.557713
vt 0.437289 0.557713
vt 0.437289 0.442287
vt 0.552716 0.442287
vt 0.557713 -0.023524
vt 0.442287 -0.023524
vt 0.446202 0.634894
vt 0.553798 0.634894
vt 0.442287 0.976476
vt 0.442287 -0.023524
vt 0.446202 0.634894
vt 0.446202 0.740694
vt 0.446202 0.634894
vt 0.446202 0.740694
vt 0.553798 0.740694
vt 0.553798 0.634894
vt 0.437289 0.740694
vt 0.874005 0.740694
vt 0.874005 0.634894
vt 0.437289 0.634894
vt 0.437289 0.553798
vt 0.874005 0.553798
vt 0.874005 0.446202
vt 0.437289 0.446202
vt 0.437289 0.634894
vt 0.874005 0.634894
vt 0.874005 0.740694
vt 0.437289 0.740694
vt 0.437289 0.446202
vt 0.874005 0.446202
vt 0.874005 0.553798
vt 0.437289 0.553798
vt 0.553798 0.634894
vt 0.553798 0.740694
vt 0.446202 0.740694
vt 0.446202 0.634894
vt 0.552716 0.740694
vt 0.115999 0.740694
vt 0.115999 0.634894
vt 0.552716 0.634894
vt 0.552716 0.446202
vt 0.115999 0.446202
vt 0.115999 0.553798
vt 0.552716 0.553798
vt 0.552716 0.634894
vt 0.115999 0.634894
vt 0.115999 0.740694
vt 0.552716 0.740694
vt 0.552716 0.553798
vt 0.115999 0.553798
vt 0.115999 0.446202
vt 0.552716 0.446202
vt 0.512890 0.386881
vt 0.446621 0.320611
vt 0.247741 0.519491
vt 0.314010 0.585761
vt 0.579159 0.320611
vt 0.512890 0.254342
vt 0.579159 0.320611
vt 0.512890 0.254342
vt 0.688265 0.078967
vt 0.754534 0.145236
vt 0.512890 0.386881
vt 0.446621 0.320611
vt 0.546859 0.320611
vt 0.546859 0.254342
vt 0.453141 0.254342
vt 0.453141 0.320611
vt 0.579159 0.546859
vt 0.512890 0.546859
vt 0.512890 0.453141
vt 0.579159 0.453141
vt 0.453141 0.519491
vt 0.453141 0.585761
vt 0.546859 0.585761
vt 0.546859 0.519491
vt 0.314010 0.585761
vt 0.247741 0.519491
vt 0.314010 0.546859
vt 0.314010 0.453141
vt 0.446621 0.546859
vt 0.446621 0.453141
vt 0.247741 0.453141
vt 0.247741 0.546859
vt 0.546859 0.078967
vt 0.546859 0.145236
vt 0.453141 0.145236
vt 0.453141 0.078967
vt 0.512890 0.453141
vt 0.512890 0.546859
vt 0.688265 0.546859
vt 0.688265 0.453141
vt 0.754534 0.453141
vt 0.754534 0.546859
vt 0.754534 0.145236
vt 0.688265 0.078967
vn -1.0000 0.0000 0.0000
vn 0.0000 0.0000 -1.0000
vn 1.0000 0.0000 0.0000
vn 0.0000 0.0000 1.0000
vn 0.0000 -1.0000 0.0000
vn 0.0000 1.0000 0.0000
vn -0.7071 -0.7071 0.0000
vn 0.7071 0.7071 0.0000
vn -0.7071 0.7071 0.0000
vn 0.7071 -0.7071 0.0000
usemtl Material
s off
f 2/1/1 4/2/1 12/3/1 11/4/1
f 3/5/2 4/6/2 8/7/2 7/8/2
f 7/9/3 8/10/3 13/11/3 14/12/3
f 5/13/4 6/14/4 2/15/4 1/16/4
f 3/17/5 7/18/5 5/19/5 1/20/5
f 8/21/6 4/22/6 2/23/6 6/24/6
f 3/25/1 1/26/1 10/27/1 9/28/1
f 6/29/3 5/30/3 15/31/3 16/32/3
f 5/30/3 7/9/3 14/12/3 15/31/3
f 4/2/1 3/25/1 9/28/1 12/3/1
f 1/26/1 2/1/1 11/4/1 10/27/1
f 8/10/3 6/29/3 16/32/3 13/11/3
f 17/33/1 18/34/1 19/35/1 20/36/1
f 11/37/2 18/38/2 17/39/2 10/40/2
f 12/41/5 19/42/5 18/43/5 11/44/5
f 9/45/4 20/46/4 19/47/4 12/48/4
f 10/49/6 17/50/6 20/51/6 9/52/6
f 21/53/3 22/54/3 23/55/3 24/56/3
f 13/57/4 22/58/4 21/59/4 14/60/4
f 16/61/5 23/62/5 22/63/5 13/64/5
f 15/65/2 24/66/2 23/67/2 16/68/2
f 14/69/6 21/70/6 24/71/6 15/72/6
f 28/73/2 27/74/2 33/75/2 36/76/2
f 27/74/2 28/73/2 32/77/2 31/78/2
f 30/79/4 29/80/4 39/81/4 40/82/4
f 29/80/4 30/79/4 26/83/4 25/84/4
f 27/85/7 31/86/7 29/87/7 25/88/7
f 32/89/8 28/90/8 26/91/8 30/92/8
f 34/93/9 35/94/9 36/95/9 33/96/9
f 25/84/4 26/83/4 35/97/4 34/98/4
f 26/91/8 28/90/8 36/99/8 35/100/8
f 27/101/7 25/102/7 34/103/7 33/104/7
f 38/105/10 37/106/10 40/107/10 39/108/10
f 29/109/7 31/110/7 38/111/7 39/112/7
f 32/89/8 30/92/8 40/113/8 37/114/8
f 31/78/2 32/77/2 37/115/2 38/116/2
