# Blender v2.93.4 OBJ File: 'test.blend'
# www.blender.org
mtllib runner.mtl
o Cube_Cube.001
v 0.967874 -0.749416 -0.648825
v 1.000000 1.000000 -0.648825
v -0.852220 0.150118 -0.648825
v -0.955023 0.640187 -0.648825
v 1.682750 -0.397721 -0.648825
v 1.984736 0.773423 -0.648825
v 0.019276 -0.659462 -0.648825
v -0.000000 1.000000 -0.648825
v 2.504352 -0.296391 -0.404350
v 2.523115 0.321414 -0.404350
v 3.462285 -0.219693 -0.275095
v 3.474629 0.186724 -0.275095
v -0.903621 0.395152 -0.648825
v 0.983937 0.125292 -0.648825
v 1.833743 0.187851 -0.648825
v 0.009638 0.170269 -0.648825
v 2.513733 0.012512 -0.404350
v 3.468457 -0.016484 -0.275095
v 0.967874 -0.749416 -1.079316
v 0.399955 -0.679461 -1.002749
v 0.839043 -0.098107 -1.109290
v 0.317996 -0.168422 -1.050743
v 1.264017 -1.611313 -0.648825
v 0.897568 -1.601874 -0.648825
v 1.264017 -1.611313 -1.079316
v 0.897567 -1.601874 -1.079316
v 0.817450 -2.484897 -0.648825
v 0.451000 -2.475458 -0.648825
v 0.817450 -2.484897 -1.079316
v 0.451000 -2.475458 -1.079316
v 0.967874 -0.749416 0.648825
v 1.000000 1.000000 0.648825
v -0.852220 0.150118 0.648825
v -0.955023 0.640187 0.648825
v -1.286433 0.149694 0.000000
v -1.389237 0.750888 0.000000
v 0.967874 -0.953814 -0.000000
v 1.000000 1.192291 -0.000000
v 1.682750 -0.397721 0.648825
v 1.984736 0.773423 0.648825
v 1.682750 -0.522371 -0.000000
v 1.984736 0.914337 -0.000000
v 0.019276 -0.659462 0.648825
v 0.000000 1.000000 0.648825
v 0.000000 1.192291 0.000000
v 0.019276 -0.843463 -0.000000
v 2.504352 -0.296391 0.404350
v 2.523115 0.321414 0.404350
v 2.504352 -0.398064 -0.000000
v 2.523115 0.470339 -0.000000
v 3.462285 -0.219693 0.275094
v 3.474629 0.186724 0.275094
v 3.462285 -0.303974 -0.000000
v 3.474629 0.305107 -0.000000
v -0.903621 0.395152 0.648825
v 0.983937 0.125292 0.648825
v -1.337835 0.450291 0.000000
v 1.833743 0.187851 0.648825
v 0.009638 0.170269 0.648825
v 2.513733 0.012512 0.404350
v 3.468457 -0.016484 0.275094
v 3.468457 -0.054687 -0.000000
v 0.967874 -0.749416 1.079316
v 0.399955 -0.679461 1.002749
v 0.839043 -0.098107 1.109290
v 0.317996 -0.168422 1.050743
v 1.264017 -1.611313 0.648825
v 0.897568 -1.601874 0.648825
v 1.264017 -1.611313 1.079316
v 0.897568 -1.601874 1.079316
v 0.817450 -2.484897 0.648825
v 0.451000 -2.475458 0.648825
v 0.817450 -2.484897 1.079316
v 0.451000 -2.475458 1.079316
vt 0.500000 0.375000
vt 0.625000 0.500000
vt 0.500000 0.500000
vt 0.500000 0.625000
vt 0.625000 0.750000
vt 0.500000 0.750000
vt 0.250000 0.625000
vt 0.375000 0.750000
vt 0.250000 0.750000
vt 0.750000 0.625000
vt 0.625000 0.625000
vt 0.500000 0.750000
vt 0.625000 0.750000
vt 0.500000 0.750000
vt 0.750000 0.750000
vt 0.625000 0.750000
vt 0.250000 0.750000
vt 0.375000 0.500000
vt 0.250000 0.500000
vt 0.750000 0.750000
vt 0.625000 0.750000
vt 0.375000 0.750000
vt 0.250000 0.750000
vt 0.500000 0.875000
vt 0.500000 0.750000
vt 0.375000 0.750000
vt 0.250000 0.750000
vt 0.375000 0.875000
vt 0.375000 0.625000
vt 0.375000 0.750000
vt 0.375000 0.750000
vt 0.375000 0.625000
vt 0.375000 0.625000
vt 0.375000 0.375000
vt 0.500000 0.750000
vt 0.500000 0.625000
vt 0.375000 0.625000
vt 0.375000 0.625000
vt 0.375000 0.750000
vt 0.375000 0.750000
vt 0.375000 0.750000
vt 0.375000 0.750000
vt 0.375000 0.625000
vt 0.625000 0.375000
vt 0.750000 0.750000
vt 0.750000 0.500000
vt 0.750000 0.750000
vt 0.625000 0.875000
vt 0.500000 0.500000
vt 0.625000 0.500000
vt 0.500000 0.625000
vt 0.500000 0.750000
vt 0.625000 0.750000
vt 0.375000 0.750000
vt 0.625000 0.625000
vt 0.500000 0.750000
vt 0.500000 0.750000
vt 0.625000 0.750000
vt 0.625000 0.750000
vt 0.375000 0.500000
vt 0.625000 0.750000
vt 0.375000 0.750000
vt 0.500000 0.750000
vt 0.375000 0.750000
vt 0.375000 0.625000
vt 0.375000 0.750000
vt 0.375000 0.750000
vt 0.375000 0.625000
vt 0.375000 0.625000
vt 0.500000 0.750000
vt 0.500000 0.625000
vt 0.375000 0.625000
vt 0.375000 0.625000
vt 0.375000 0.750000
vt 0.375000 0.750000
vt 0.375000 0.750000
vt 0.375000 0.750000
vt 0.375000 0.625000
vn -0.8253 -0.1731 -0.5376
vn -0.0000 0.0000 -1.0000
vn -0.1103 -0.9480 -0.2986
vn -0.0000 0.9588 -0.2842
vn 0.3360 -0.0102 -0.9418
vn 0.2194 0.9534 -0.2071
vn 0.4989 -0.8266 -0.2604
vn -0.3397 0.9017 -0.2672
vn -0.5610 -0.7375 -0.3759
vn 0.1769 0.9236 -0.3402
vn 0.1452 -0.9595 -0.2413
vn 0.6868 0.6821 -0.2512
vn 0.9995 -0.0304 -0.0042
vn 0.1340 -0.0041 -0.9910
vn 0.0935 -0.9519 -0.2916
vn 0.9997 -0.0247 -0.0076
vn 0.2929 -0.0755 -0.9531
vn -0.1323 0.0109 -0.9912
vn -0.8187 -0.1717 -0.5480
vn -0.1421 -0.0735 -0.9871
vn 0.9561 -0.0176 -0.2924
vn 0.0359 0.7776 -0.6277
vn -0.6753 -0.1756 -0.7164
vn -0.8904 0.4552 0.0000
vn -0.0000 0.0000 1.0000
vn -0.5857 -0.5459 -0.5991
vn 0.9457 0.3249 -0.0000
vn -0.0257 -0.9997 -0.0000
vn 0.8904 -0.4552 0.0000
vn -0.8336 -0.1426 -0.5336
vn -0.0909 -0.9581 -0.2717
vn 0.3483 -0.0898 -0.9331
vn 0.2612 0.9255 -0.2743
vn 0.4350 -0.8842 -0.1699
vn -0.2844 0.8952 -0.3431
vn -0.6664 -0.7173 -0.2034
vn 0.1575 0.9071 -0.3904
vn 0.1745 -0.9670 -0.1858
vn 0.6275 0.7609 -0.1653
vn 0.9998 -0.0172 0.0074
vn 0.1099 -0.9639 -0.2424
vn -0.8282 -0.1416 -0.5422
vn -0.0965 -0.1084 -0.9894
vn 0.9810 0.1940 -0.0000
vn -0.1659 0.9067 -0.3877
vn -0.7971 -0.0093 -0.6038
vn -0.8801 -0.4748 0.0000
vn -0.8253 -0.1731 0.5376
vn -0.1103 -0.9480 0.2986
vn 0.0000 0.9588 0.2842
vn 0.3360 -0.0102 0.9418
vn 0.2194 0.9534 0.2071
vn 0.4989 -0.8266 0.2604
vn -0.3397 0.9017 0.2672
vn -0.5610 -0.7375 0.3759
vn 0.1769 0.9236 0.3402
vn 0.1452 -0.9595 0.2413
vn 0.6868 0.6821 0.2512
vn 0.9995 -0.0304 0.0042
vn 0.1340 -0.0041 0.9910
vn 0.0935 -0.9519 0.2916
vn 0.9997 -0.0247 0.0076
vn 0.2929 -0.0755 0.9531
vn -0.1323 0.0109 0.9912
vn -0.8187 -0.1717 0.5480
vn -0.1421 -0.0735 0.9871
vn 0.9561 -0.0176 0.2924
vn 0.0359 0.7776 0.6277
vn -0.6753 -0.1756 0.7164
vn -0.5857 -0.5459 0.5991
vn -0.8336 -0.1426 0.5336
vn -0.0909 -0.9581 0.2717
vn 0.3483 -0.0898 0.9331
vn 0.2612 0.9255 0.2743
vn 0.4350 -0.8842 0.1699
vn -0.2844 0.8952 0.3431
vn -0.6664 -0.7173 0.2034
vn 0.1575 0.9071 0.3904
vn 0.1745 -0.9670 0.1858
vn 0.6275 0.7609 0.1653
vn 0.9998 -0.0172 -0.0074
vn 0.1099 -0.9639 0.2424
vn -0.8282 -0.1416 0.5422
vn -0.0965 -0.1084 0.9894
vn -0.1659 0.9067 0.3877
vn -0.7971 -0.0093 0.6038
usemtl None
s off
f 57/1/1 4/2/1 13/3/1
f 16/4/2 2/5/2 14/6/2
f 46/7/3 1/8/3 37/9/3
f 45/10/4 2/5/4 8/11/4
f 2/5/2 15/12/2 14/6/2
f 15/12/5 10/13/5 17/14/5
f 2/5/6 42/15/6 6/16/6
f 1/8/7 41/17/7 37/9/7
f 4/2/8 45/10/8 8/11/8
f 3/18/9 46/7/9 35/19/9
f 13/3/2 8/11/2 16/4/2
f 50/20/10 12/21/10 10/13/10
f 41/17/11 9/22/11 49/23/11
f 6/16/12 50/20/12 10/13/12
f 12/21/13 62/24/13 18/25/13
f 17/14/14 12/21/14 18/25/14
f 49/23/15 11/26/15 53/27/15
f 17/14/14 11/26/14 9/22/14
f 11/26/16 62/24/16 53/28/16
f 3/18/2 16/4/2 7/29/2
f 15/12/17 9/22/17 5/30/17
f 14/6/2 5/30/2 1/8/2
f 19/31/18 26/32/18 20/33/18
f 35/34/19 13/3/19 3/18/19
f 20/33/20 21/35/20 19/31/20
f 1/8/21 21/35/21 14/6/21
f 14/6/22 22/36/22 16/4/22
f 7/29/23 22/36/23 20/33/23
f 26/32/24 28/37/24 24/38/24
f 1/8/25 24/38/25 23/39/25
f 20/33/26 24/38/26 7/29/26
f 1/8/27 25/40/27 19/31/27
f 28/37/28 29/41/28 27/42/28
f 24/38/25 27/42/25 23/39/25
f 23/39/29 29/41/29 25/40/29
f 26/32/2 29/41/2 30/43/2
f 57/1/30 36/44/30 4/2/30
f 16/4/2 8/11/2 2/5/2
f 46/7/31 7/29/31 1/8/31
f 45/10/4 38/45/4 2/5/4
f 2/5/2 6/16/2 15/12/2
f 15/12/32 6/16/32 10/13/32
f 2/5/33 38/45/33 42/15/33
f 1/8/34 5/30/34 41/17/34
f 4/2/35 36/46/35 45/10/35
f 3/18/36 7/29/36 46/7/36
f 13/3/2 4/2/2 8/11/2
f 50/20/37 54/47/37 12/21/37
f 41/17/38 5/30/38 9/22/38
f 6/16/39 42/15/39 50/20/39
f 12/21/40 54/48/40 62/24/40
f 17/14/14 10/13/14 12/21/14
f 49/23/41 9/22/41 11/26/41
f 17/14/14 18/25/14 11/26/14
f 11/26/13 18/25/13 62/24/13
f 3/18/2 13/3/2 16/4/2
f 15/12/5 17/14/5 9/22/5
f 14/6/2 15/12/2 5/30/2
f 19/31/2 25/40/2 26/32/2
f 35/34/42 57/1/42 13/3/42
f 20/33/43 22/36/43 21/35/43
f 1/8/44 19/31/44 21/35/44
f 14/6/45 21/35/45 22/36/45
f 7/29/46 16/4/46 22/36/46
f 26/32/24 30/43/24 28/37/24
f 1/8/25 7/29/25 24/38/25
f 20/33/47 26/32/47 24/38/47
f 1/8/27 23/39/27 25/40/27
f 28/37/28 30/43/28 29/41/28
f 24/38/25 28/37/25 27/42/25
f 23/39/29 27/42/29 29/41/29
f 26/32/2 25/40/2 29/41/2
f 57/1/48 55/49/48 34/50/48
f 59/51/25 56/52/25 32/53/25
f 46/7/49 37/9/49 31/54/49
f 45/10/50 44/55/50 32/53/50
f 32/53/25 56/52/25 58/56/25
f 58/56/51 60/57/51 48/58/51
f 32/53/52 40/59/52 42/15/52
f 31/54/53 37/9/53 41/17/53
f 34/50/54 44/55/54 45/10/54
f 33/60/55 35/19/55 46/7/55
f 55/49/25 59/51/25 44/55/25
f 50/20/56 48/58/56 52/61/56
f 41/17/57 49/23/57 47/62/57
f 40/59/58 48/58/58 50/20/58
f 52/61/59 61/63/59 62/24/59
f 60/57/60 61/63/60 52/61/60
f 49/23/61 53/27/61 51/64/61
f 60/57/60 47/62/60 51/64/60
f 51/64/62 53/28/62 62/24/62
f 33/60/25 43/65/25 59/51/25
f 58/56/63 39/66/63 47/62/63
f 56/52/25 31/54/25 39/66/25
f 63/67/64 64/68/64 70/69/64
f 35/34/65 33/60/65 55/49/65
f 64/68/66 63/67/66 65/70/66
f 31/54/67 56/52/67 65/70/67
f 56/52/68 59/51/68 66/71/68
f 43/65/69 64/68/69 66/71/69
f 70/69/24 68/72/24 72/73/24
f 31/54/2 67/74/2 68/72/2
f 64/68/70 43/65/70 68/72/70
f 31/54/27 63/67/27 69/75/27
f 72/73/28 71/76/28 73/77/28
f 68/72/2 67/74/2 71/76/2
f 67/74/29 69/75/29 73/77/29
f 70/69/25 74/78/25 73/77/25
f 57/1/71 34/50/71 36/44/71
f 59/51/25 32/53/25 44/55/25
f 46/7/72 31/54/72 43/65/72
f 45/10/50 32/53/50 38/45/50
f 32/53/25 58/56/25 40/59/25
f 58/56/73 48/58/73 40/59/73
f 32/53/74 42/15/74 38/45/74
f 31/54/75 41/17/75 39/66/75
f 34/50/76 45/10/76 36/46/76
f 33/60/77 46/7/77 43/65/77
f 55/49/25 44/55/25 34/50/25
f 50/20/78 52/61/78 54/47/78
f 41/17/79 47/62/79 39/66/79
f 40/59/80 50/20/80 42/15/80
f 52/61/81 62/24/81 54/48/81
f 60/57/60 52/61/60 48/58/60
f 49/23/82 51/64/82 47/62/82
f 60/57/60 51/64/60 61/63/60
f 51/64/59 62/24/59 61/63/59
f 33/60/25 59/51/25 55/49/25
f 58/56/51 47/62/51 60/57/51
f 56/52/25 39/66/25 58/56/25
f 63/67/25 70/69/25 69/75/25
f 35/34/83 55/49/83 57/1/83
f 64/68/84 65/70/84 66/71/84
f 31/54/44 65/70/44 63/67/44
f 56/52/85 66/71/85 65/70/85
f 43/65/86 66/71/86 59/51/86
f 70/69/24 72/73/24 74/78/24
f 31/54/2 68/72/2 43/65/2
f 64/68/47 68/72/47 70/69/47
f 31/54/27 69/75/27 67/74/27
f 72/73/28 73/77/28 74/78/28
f 68/72/2 71/76/2 72/73/2
f 67/74/29 73/77/29 71/76/29
f 70/69/25 73/77/25 69/75/25
