# Blender v2.93.4 OBJ File: 'test.blend'
# www.blender.org
mtllib runner.mtl
o Cube_Cube.002
v -0.796448 -0.898224 0.728763
v -0.500373 1.018505 0.728763
v 0.861215 -0.555887 0.728763
v 1.000000 1.000000 0.728763
v -2.073273 -0.509576 0.548318
v -1.712431 0.639109 0.548318
v -3.148737 0.149547 0.318248
v -2.737250 0.692417 0.318248
v -3.682950 0.905533 0.318248
v -3.384130 1.379808 0.318248
v -3.981725 1.224100 0.225726
v -3.952489 1.607585 0.225726
v -4.487165 0.410031 0.225726
v -4.513621 1.650363 0.225726
v 1.589814 -0.305880 0.469707
v 1.876457 0.284596 0.469707
v 2.058889 -0.481046 0.265461
v 2.314014 -0.333925 0.265461
v -0.648411 0.060140 0.782240
v 0.930607 0.222056 0.782240
v -1.892852 0.064766 0.601794
v -2.942993 0.420982 0.371725
v -3.533540 1.142671 0.371725
v -3.967107 1.415843 0.279203
v -4.472548 0.601774 0.279203
v 1.733136 -0.010642 0.523184
v 2.186451 -0.407486 0.318937
v 0.032383 -0.727056 0.728763
v 0.249813 1.009252 0.728763
v 0.141098 0.141098 0.782240
v -0.924358 -1.059004 1.308744
v -0.787610 -0.755118 1.619681
v -0.417423 -0.741300 1.581104
v -0.529811 -1.015379 1.295680
v -1.302628 -1.853500 1.673356
v -1.164905 -1.767124 1.969172
v -0.893926 -1.755397 1.918995
v -1.010375 -1.831883 1.648066
v -1.567933 -2.896298 1.721373
v -1.430210 -2.809922 2.017190
v -1.159231 -2.798195 1.967013
v -1.275680 -2.874681 1.696083
v -0.796448 -0.898224 -0.728763
v -0.500373 1.018505 -0.728763
v 0.861215 -0.555887 -0.728763
v 1.000000 1.000000 -0.728763
v -0.803520 -1.052239 0.000000
v -0.522728 1.171052 0.000000
v 0.901907 -0.704599 0.000000
v 1.052643 1.144910 0.000000
v -2.136513 -0.650186 0.000000
v -2.073273 -0.509576 -0.548318
v -1.712431 0.639109 -0.548318
v -1.731756 0.792070 0.000000
v -3.254137 0.037023 0.000000
v -3.148737 0.149547 -0.318248
v -2.737250 0.692417 -0.318248
v -2.672439 0.832311 0.000000
v -3.802418 0.808076 0.000000
v -3.682950 0.905533 -0.318248
v -3.384130 1.379808 -0.318248
v -3.297274 1.507191 0.000000
v -4.048338 1.085057 0.000000
v -3.981725 1.224100 -0.225726
v -3.952489 1.607585 -0.225726
v -3.917547 1.757751 0.000000
v -4.604154 0.309615 0.000000
v -4.487165 0.410031 -0.225726
v -4.513621 1.650363 -0.225726
v -4.614038 1.767352 0.000000
v 1.589814 -0.305880 -0.469707
v 1.876457 0.284596 -0.469707
v 1.587749 -0.460046 0.000000
v 1.989164 0.389798 0.000000
v 2.058889 -0.481046 -0.265461
v 2.314014 -0.333925 -0.265461
v 2.071645 -0.634694 0.000000
v 2.464609 -0.366971 0.000000
v -0.648411 0.060140 -0.782240
v 0.930607 0.222056 -0.782240
v -1.892852 0.064766 -0.601794
v -2.942993 0.420982 -0.371725
v -3.533540 1.142671 -0.371725
v -3.967107 1.415843 -0.279203
v -4.472548 0.601774 -0.279203
v -4.626281 0.613490 0.000000
v 1.733136 -0.010642 -0.523184
v 2.186451 -0.407486 -0.318937
v 2.967037 -2.905174 0.065830
v 0.032383 -0.727056 -0.728763
v 0.249813 1.009252 -0.728763
v 0.264958 1.157981 0.000000
v 0.049193 -0.878419 0.000000
v 0.141098 0.141098 -0.782240
v -0.924358 -1.059004 -1.308744
v -0.787610 -0.755118 -1.619681
v -0.417423 -0.741300 -1.581104
v -0.529811 -1.015379 -1.295680
v -1.302628 -1.853500 -1.673356
v -1.164905 -1.767124 -1.969172
v -0.893926 -1.755397 -1.918995
v -1.010375 -1.831883 -1.648066
v -1.567933 -2.896298 -1.721373
v -1.430210 -2.809922 -2.017190
v -1.159231 -2.798195 -1.967013
v -1.275680 -2.874681 -1.696083
v 2.765638 -1.720379 0.029705
v 2.679796 -1.657565 0.201795
v 2.583108 -1.669328 0.236033
v 2.487401 -1.683044 0.199819
v 2.458950 -1.784663 0.027212
v 2.684673 -1.667261 -0.147925
v 2.588966 -1.680977 -0.184138
v 2.492277 -1.692741 -0.149901
v 2.881196 -2.905174 0.237920
v 2.784507 -2.905174 0.272157
v 2.688800 -2.905174 0.235944
v 2.660350 -2.905174 0.063336
v 2.800738 -2.905174 0.065049
v 2.886072 -2.905174 -0.111800
v 2.790365 -2.905174 -0.148013
v 2.693676 -2.905174 -0.113776
vt 0.625000 0.625000
vt 0.625000 0.750000
vt 0.625000 0.625000
vt 0.500000 0.875000
vt 0.625000 1.000000
vt 0.500000 1.000000
vt 0.375000 0.625000
vt 0.250000 0.750000
vt 0.250000 0.625000
vt 0.750000 0.625000
vt 0.875000 0.750000
vt 0.750000 0.750000
vt 0.625000 1.000000
vt 0.500000 1.000000
vt 0.125000 0.625000
vt 0.125000 0.750000
vt 0.125000 0.625000
vt 0.875000 0.625000
vt 0.875000 0.750000
vt 0.125000 0.625000
vt 0.125000 0.750000
vt 0.875000 0.625000
vt 0.875000 0.750000
vt 0.875000 0.750000
vt 0.625000 1.000000
vt 0.500000 1.000000
vt 0.875000 0.625000
vt 0.875000 0.625000
vt 0.875000 0.750000
vt 0.125000 0.625000
vt 0.500000 1.000000
vt 0.500000 1.000000
vt 0.625000 1.000000
vt 0.500000 1.000000
vt 0.125000 0.750000
vt 0.125000 0.625000
vt 0.625000 1.000000
vt 0.625000 0.000000
vt 0.500000 0.125000
vt 0.500000 0.000000
vt 0.875000 0.625000
vt 0.875000 0.750000
vt 0.125000 0.750000
vt 0.125000 0.625000
vt 0.500000 0.750000
vt 0.375000 0.750000
vt 0.500000 0.750000
vt 0.375000 0.750000
vt 0.375000 0.750000
vt 0.500000 0.750000
vt 0.625000 0.625000
vt 0.625000 0.750000
vt 0.625000 0.625000
vt 0.375000 0.625000
vt 0.625000 0.750000
vt 0.375000 0.625000
vt 0.375000 0.750000
vt 0.625000 0.750000
vt 0.375000 0.000000
vt 0.375000 0.125000
vt 0.375000 1.000000
vt 0.375000 1.000000
vt 0.375000 1.000000
vt 0.375000 1.000000
vt 0.375000 1.000000
vt 0.375000 1.000000
vt 0.375000 0.875000
vt 0.500000 0.875000
vt 0.375000 0.875000
vt 0.125000 0.750000
vt 0.625000 0.875000
vt 0.375000 1.000000
vt 0.500000 1.000000
vt 0.500000 1.000000
vt 0.250000 0.750000
vt 0.125000 0.750000
vt 0.375000 0.875000
vt 0.500000 0.875000
vt 0.375000 0.875000
vt 0.500000 0.875000
vt 0.250000 0.750000
vt 0.125000 0.750000
vt 0.500000 1.000000
vt 0.375000 1.000000
vt 0.250000 0.750000
vt 0.125000 0.750000
vt 0.375000 1.000000
vt 0.625000 0.750000
vt 0.625000 0.750000
vt 0.500000 0.875000
vt 0.625000 1.000000
vt 0.625000 0.875000
vt 0.250000 0.750000
vt 0.875000 0.750000
vt 0.500000 1.000000
vt 0.625000 1.000000
vt 0.125000 0.750000
vt 0.125000 0.750000
vt 0.875000 0.750000
vt 0.125000 0.750000
vt 0.875000 0.750000
vt 0.875000 0.750000
vt 0.500000 1.000000
vt 0.625000 1.000000
vt 0.875000 0.750000
vt 0.500000 1.000000
vt 0.500000 1.000000
vt 0.500000 1.000000
vt 0.625000 1.000000
vt 0.625000 1.000000
vt 0.125000 0.750000
vt 0.625000 1.000000
vt 0.625000 0.000000
vt 0.500000 0.000000
vt 0.875000 0.750000
vt 0.125000 0.750000
vt 0.125000 0.750000
vt 0.500000 0.750000
vt 0.375000 0.750000
vt 0.375000 0.750000
vt 0.375000 0.750000
vt 0.500000 0.750000
vt 0.500000 0.750000
vt 0.375000 0.750000
vt 0.625000 0.750000
vt 0.500000 0.750000
vt 0.625000 0.750000
vt 0.375000 0.000000
vt 0.375000 1.000000
vt 0.375000 1.000000
vt 0.500000 1.000000
vt 0.375000 1.000000
vt 0.375000 1.000000
vt 0.375000 1.000000
vt 0.375000 0.875000
vt 0.500000 0.875000
vt 0.500000 1.000000
vt 0.375000 1.000000
vt 0.500000 1.000000
vt 0.250000 0.750000
vt 0.375000 0.875000
vt 0.500000 0.875000
vt 0.500000 0.875000
vt 0.375000 0.875000
vt 0.125000 0.750000
vt 0.250000 0.750000
vt 0.375000 0.875000
vt 0.500000 1.000000
vt 0.125000 0.750000
vt 0.250000 0.750000
vt 0.375000 1.000000
vt 0.375000 0.625000
vt 0.375000 0.750000
vt 0.500000 0.750000
vt 0.625000 0.750000
vt 0.375000 0.750000
vt 0.500000 0.750000
vt 0.500000 0.750000
vt 0.500000 0.625000
vt 0.375000 0.625000
vt 0.625000 0.750000
vt 0.625000 0.625000
vt 0.625000 1.000000
vt 0.125000 0.750000
vt 0.625000 0.125000
vt 0.875000 0.625000
vt 0.750000 0.750000
vt 0.375000 1.000000
vt 0.375000 1.000000
vt 0.125000 0.750000
vn 0.5969 0.7404 0.3091
vn -0.0058 0.0566 0.9984
vn 0.1955 -0.9593 0.2038
vn 0.0121 0.9797 0.2002
vn -0.1417 0.1358 0.9806
vn -0.4732 -0.7696 0.4288
vn -0.3199 0.9253 0.2035
vn -0.2782 -0.9222 0.2686
vn 0.6642 0.6251 0.4100
vn -0.1156 0.2756 0.9543
vn -0.0103 0.9631 0.2690
vn 0.2774 0.8634 0.4213
vn -0.7362 -0.5235 0.4289
vn 0.1234 0.1010 0.9872
vn -0.0769 0.0478 0.9959
vn -0.6731 -0.5976 0.4357
vn -0.0494 0.2492 0.9672
vn -0.8761 -0.0097 0.4820
vn 0.0630 0.8264 0.5595
vn 0.8023 -0.5751 -0.1600
vn -0.0632 -0.5128 0.8562
vn 0.3821 -0.9010 0.2052
vn 0.2215 -0.2769 0.9350
vn 0.9034 0.2092 0.3743
vn -0.2135 -0.9279 0.3055
vn 0.7823 0.4915 0.3826
vn -0.9284 -0.3393 0.1517
vn 0.3113 0.0375 0.9496
vn 0.3939 -0.0248 0.9188
vn -0.8742 -0.0637 0.4814
vn -0.3125 -0.0173 0.9498
vn 0.4386 -0.2723 0.8565
vn -0.1327 -0.0938 0.9867
vn -0.2227 -0.0232 0.9746
vn -0.1529 -0.0439 0.9873
vn 0.6817 -0.6430 0.3490
vn 0.0130 -0.0631 0.9979
vn 0.0163 0.9804 0.1961
vn 0.1957 -0.9599 0.2010
vn -0.0064 0.0623 0.9980
vn -0.9296 0.3647 0.0524
vn -0.9880 0.1535 -0.0148
vn -0.0711 0.6938 0.7166
vn 0.0985 -0.9644 -0.2456
vn 0.9136 -0.2473 -0.3229
vn 0.8081 -0.5576 -0.1899
vn 0.0894 0.2768 0.9568
vn -0.0500 -0.3968 -0.9165
vn 0.0922 -0.9666 0.2393
vn 0.1821 -0.0011 0.9833
vn -0.0844 -0.0244 -0.9961
vn -0.9042 0.2461 0.3491
vn 0.6540 0.7315 -0.1927
vn 0.0008 0.0614 -0.9981
vn 0.1955 -0.9593 -0.2038
vn 0.0162 0.9788 -0.2044
vn -0.1716 0.0813 -0.9818
vn -0.5445 -0.7953 -0.2667
vn -0.3199 0.9253 -0.2035
vn -0.3110 -0.9292 -0.1994
vn 0.6642 0.6251 -0.4100
vn -0.2087 0.1555 -0.9656
vn -0.0103 0.9631 -0.2690
vn 0.2774 0.8634 -0.4213
vn -0.7362 -0.5235 -0.4289
vn 0.1234 0.1010 -0.9872
vn 0.0204 0.2671 -0.9634
vn -0.6731 -0.5976 -0.4357
vn -0.0494 0.2492 -0.9672
vn -0.8761 -0.0097 -0.4820
vn 0.0630 0.8264 -0.5595
vn 0.8472 -0.5260 -0.0740
vn 0.2834 -0.3024 -0.9101
vn 0.3821 -0.9010 -0.2052
vn 0.3626 -0.0961 -0.9270
vn -0.3057 -0.1981 -0.9313
vn -0.2135 -0.9279 -0.3055
vn 0.8221 0.4808 -0.3050
vn 0.3523 0.0123 -0.9358
vn 0.3113 0.0375 -0.9496
vn 0.3939 -0.0248 -0.9188
vn -0.8752 -0.0669 -0.4791
vn -0.3125 -0.0173 -0.9498
vn 0.4386 -0.2723 -0.8565
vn -0.1327 -0.0938 -0.9867
vn -0.2209 -0.0214 -0.9751
vn -0.1435 -0.0330 -0.9891
vn 0.8769 -0.1382 -0.4604
vn 0.0071 -0.0692 -0.9976
vn 0.0163 0.9804 -0.1961
vn 0.1957 -0.9599 -0.2010
vn 0.0008 0.0685 -0.9977
vn -0.9296 0.3647 -0.0524
vn -0.9880 0.1535 0.0148
vn -0.0711 0.6938 -0.7166
vn 0.1939 -0.9387 0.2852
vn 0.9136 -0.2473 0.3228
vn 0.9094 -0.4141 -0.0396
vn 0.0894 0.2768 -0.9568
vn 0.0143 -0.4033 0.9150
vn 0.0857 -0.9679 -0.2364
vn 0.1821 -0.0011 -0.9833
vn -0.0844 -0.0244 0.9961
vn -0.9042 0.2461 -0.3491
vn -0.9574 -0.1505 0.2464
vn 0.3327 0.0809 0.9396
vn -0.3238 -0.0819 -0.9426
vn 0.3500 0.0299 -0.9363
vn 0.3592 0.0544 0.9317
vn -0.8929 -0.3085 -0.3281
vn 0.8628 0.1989 -0.4647
vn -0.3034 -0.1571 0.9398
vn 0.0000 -1.0000 0.0000
vn 0.8828 0.1635 0.4404
vn -0.9668 -0.1796 -0.1819
vn 0.9162 0.1381 -0.3763
vn -0.3537 -0.0303 0.9349
vn 0.6540 0.7315 0.1927
vn 0.0008 0.0614 0.9981
vn 0.1979 -0.9582 0.2066
vn 0.0162 0.9788 0.2044
vn -0.1716 0.0813 0.9818
vn -0.5445 -0.7953 0.2667
vn -0.2883 0.9197 0.2667
vn -0.3110 -0.9292 0.1994
vn 0.6635 0.6143 0.4270
vn -0.2087 0.1555 0.9656
vn 0.0390 0.9118 0.4088
vn 0.3105 0.7686 0.5594
vn -0.7353 -0.5196 0.4351
vn 0.1408 0.1325 0.9811
vn 0.0204 0.2671 0.9634
vn -0.6949 -0.5023 0.5145
vn -0.0476 0.2717 0.9612
vn -0.9118 0.0097 0.4106
vn 0.0123 0.8900 0.4558
vn 0.8472 -0.5260 0.0740
vn 0.2834 -0.3024 0.9101
vn 0.3210 -0.9003 0.2941
vn 0.3626 -0.0961 0.9270
vn 0.8606 0.2156 0.4614
vn -0.3002 -0.8317 0.4670
vn 0.8221 0.4808 0.3050
vn -0.8995 -0.2953 0.3221
vn 0.3125 0.0203 0.9497
vn 0.3962 -0.0198 0.9179
vn -0.8752 -0.0669 0.4791
vn -0.3388 -0.2287 0.9126
vn -0.1526 -0.1249 0.9804
vn -0.2209 -0.0214 0.9751
vn -0.1435 -0.0330 0.9891
vn 0.8769 -0.1382 0.4604
vn 0.0071 -0.0692 0.9976
vn 0.1980 -0.9588 0.2037
vn 0.0008 0.0685 0.9977
vn -0.8296 0.5046 0.2389
vn -0.8830 0.4648 -0.0659
vn 0.0465 0.7119 0.7008
vn 0.1939 -0.9387 -0.2852
vn 0.9136 -0.2473 -0.3228
vn 0.9094 -0.4141 0.0396
vn 0.1643 0.2667 0.9497
vn 0.0143 -0.4033 -0.9150
vn 0.0857 -0.9679 0.2364
vn 0.5969 0.7404 -0.3091
vn -0.0058 0.0566 -0.9984
vn 0.1979 -0.9582 -0.2066
vn 0.0121 0.9797 -0.2002
vn -0.1417 0.1358 -0.9806
vn -0.4732 -0.7696 -0.4288
vn -0.2883 0.9197 -0.2667
vn -0.2782 -0.9222 -0.2686
vn 0.6635 0.6143 -0.4270
vn -0.1156 0.2756 -0.9543
vn 0.0390 0.9118 -0.4088
vn 0.3105 0.7686 -0.5594
vn -0.7353 -0.5196 -0.4351
vn 0.1408 0.1325 -0.9811
vn -0.0769 0.0478 -0.9959
vn -0.6949 -0.5023 -0.5145
vn -0.0476 0.2717 -0.9612
vn -0.9118 0.0097 -0.4106
vn 0.0123 0.8900 -0.4558
vn 0.8023 -0.5751 0.1600
vn -0.0632 -0.5128 -0.8562
vn 0.3210 -0.9003 -0.2941
vn 0.2215 -0.2769 -0.9350
vn -0.2847 -0.1895 -0.9397
vn -0.3002 -0.8317 -0.4670
vn 0.7823 0.4915 -0.3826
vn 0.3754 0.0227 -0.9266
vn 0.3125 0.0203 -0.9497
vn 0.3962 -0.0198 -0.9179
vn -0.8742 -0.0637 -0.4814
vn -0.3388 -0.2287 -0.9126
vn -0.1526 -0.1249 -0.9804
vn -0.2227 -0.0232 -0.9746
vn -0.1529 -0.0439 -0.9873
vn 0.6817 -0.6430 -0.3490
vn 0.0130 -0.0631 -0.9979
vn 0.1980 -0.9588 -0.2037
vn -0.0064 0.0623 -0.9980
vn -0.8296 0.5046 -0.2389
vn -0.8830 0.4648 0.0659
vn 0.0465 0.7119 -0.7008
vn 0.0985 -0.9644 0.2456
vn 0.9136 -0.2473 0.3229
vn 0.8081 -0.5576 0.1899
vn 0.1643 0.2667 -0.9497
vn -0.0500 -0.3968 0.9165
vn 0.0922 -0.9666 -0.2393
vn -0.9724 -0.1696 0.1603
vn 0.3240 0.0804 0.9426
vn -0.3327 -0.0824 -0.9394
vn 0.3537 0.0303 -0.9349
vn 0.3290 0.0414 0.9434
vn -0.9253 -0.3458 -0.1557
vn 0.9131 0.1953 -0.3578
vn -0.3278 -0.1676 0.9298
vn 0.9054 0.1576 0.3941
vn -0.9500 -0.1657 -0.2647
vn 0.9009 0.1406 -0.4106
vn -0.3500 -0.0300 0.9363
usemtl None
s off
f 50/1/1 16/2/1 74/3/1
f 30/4/2 2/5/2 19/6/2
f 49/7/3 28/8/3 93/9/3
f 92/10/4 2/11/4 29/12/4
f 19/6/5 6/13/5 21/14/5
f 51/15/6 7/16/6 55/17/6
f 48/18/7 6/19/7 2/11/7
f 47/20/8 5/21/8 51/15/8
f 58/22/9 10/23/9 8/24/9
f 21/14/10 8/25/10 22/26/10
f 54/27/11 8/24/11 6/19/11
f 62/28/12 12/29/12 10/23/12
f 7/16/13 59/30/13 55/17/13
f 8/25/14 23/31/14 22/26/14
f 24/32/15 14/33/15 25/34/15
f 9/35/16 63/36/16 59/30/16
f 10/37/17 24/32/17 23/31/17
f 14/38/18 86/39/18 25/40/18
f 66/41/19 14/42/19 12/29/19
f 63/36/20 13/43/20 67/44/20
f 26/45/21 17/46/21 27/47/21
f 49/7/22 15/48/22 3/49/22
f 20/50/23 15/48/23 26/45/23
f 78/51/24 108/52/24 107/53/24
f 73/54/25 17/46/25 15/48/25
f 74/3/26 18/55/26 78/51/26
f 77/56/27 110/57/27 17/46/27
f 20/50/28 16/2/28 4/58/28
f 26/45/29 18/55/29 16/2/29
f 13/59/30 86/39/30 67/60/30
f 23/31/31 11/61/31 9/62/31
f 11/61/32 25/34/32 13/63/32
f 22/26/33 9/62/33 7/64/33
f 5/65/34 22/26/34 7/64/34
f 1/66/35 21/14/35 5/65/35
f 28/67/36 33/68/36 34/69/36
f 3/49/37 30/4/37 28/67/37
f 92/10/38 4/58/38 50/1/38
f 93/9/39 1/70/39 47/20/39
f 20/50/40 29/71/40 30/4/40
f 31/72/41 36/73/41 32/74/41
f 1/66/42 32/74/42 19/6/42
f 19/6/43 33/68/43 30/4/43
f 1/70/44 34/75/44 31/76/44
f 38/77/45 41/78/45 42/79/45
f 34/69/46 37/80/46 38/77/46
f 32/74/47 37/80/47 33/68/47
f 31/76/48 38/81/48 35/82/48
f 42/79/49 40/83/49 39/84/49
f 36/73/50 41/78/50 37/80/50
f 35/82/51 42/85/51 39/86/51
f 35/87/52 40/83/52 36/73/52
f 50/1/53 72/88/53 46/89/53
f 94/90/54 44/91/54 91/92/54
f 90/93/55 49/7/55 93/9/55
f 92/10/56 44/94/56 48/18/56
f 79/95/57 53/96/57 44/91/57
f 51/15/58 56/97/58 52/98/58
f 53/99/59 48/18/59 44/94/59
f 47/20/60 52/98/60 43/100/60
f 61/101/61 58/22/61 57/102/61
f 81/103/62 57/104/62 53/96/62
f 57/102/63 54/27/63 53/99/63
f 65/105/64 62/28/64 61/101/64
f 59/30/65 56/97/65 55/17/65
f 83/106/66 57/104/66 82/107/66
f 84/108/67 69/109/67 65/110/67
f 63/36/68 60/111/68 59/30/68
f 84/108/69 61/112/69 83/106/69
f 86/39/70 69/113/70 85/114/70
f 69/115/71 66/41/71 65/105/71
f 63/36/72 68/116/72 64/117/72
f 87/118/73 75/119/73 71/120/73
f 71/120/74 49/7/74 45/121/74
f 80/122/75 71/120/75 45/121/75
f 75/119/76 113/123/76 114/124/76
f 75/119/77 73/54/77 71/120/77
f 74/3/78 76/125/78 72/88/78
f 88/126/79 112/127/79 113/123/79
f 72/88/80 80/122/80 46/89/80
f 76/125/81 87/118/81 72/88/81
f 68/128/82 86/39/82 85/114/82
f 64/129/83 83/106/83 60/130/83
f 64/129/84 85/131/84 84/108/84
f 60/130/85 82/107/85 56/132/85
f 52/133/86 82/107/86 81/103/86
f 43/134/87 81/103/87 79/95/87
f 90/135/88 97/136/88 94/90/88
f 45/121/89 94/90/89 80/122/89
f 46/89/90 92/10/90 50/1/90
f 43/100/91 93/9/91 47/20/91
f 80/122/92 91/92/92 46/89/92
f 100/137/93 95/138/93 96/139/93
f 96/139/94 43/134/94 79/95/94
f 97/136/95 79/95/95 94/90/95
f 43/100/96 98/140/96 90/93/96
f 102/141/97 105/142/97 101/143/97
f 98/144/98 101/143/98 97/136/98
f 101/143/99 96/139/99 97/136/99
f 95/145/100 102/146/100 98/140/100
f 106/147/101 104/148/101 105/142/101
f 105/142/102 100/137/102 101/143/102
f 99/149/103 106/150/103 102/146/103
f 104/148/104 99/151/104 100/137/104
f 111/152/105 117/153/105 110/57/105
f 108/52/106 116/154/106 115/155/106
f 113/123/107 122/156/107 114/124/107
f 112/127/108 121/157/108 113/123/108
f 27/47/109 108/52/109 18/55/109
f 77/56/110 114/124/110 111/152/110
f 78/51/111 112/127/111 76/125/111
f 17/46/112 109/158/112 27/47/112
f 119/159/113 115/155/113 116/154/113
f 119/159/113 117/153/113 118/160/113
f 119/159/113 120/161/113 89/162/113
f 122/156/113 119/159/113 118/160/113
f 107/53/114 115/155/114 89/162/114
f 111/152/115 122/156/115 118/160/115
f 107/53/116 120/161/116 112/127/116
f 109/158/117 117/153/117 116/154/117
f 50/1/118 4/58/118 16/2/118
f 30/4/119 29/71/119 2/5/119
f 49/7/120 3/49/120 28/8/120
f 92/10/121 48/18/121 2/11/121
f 19/6/122 2/5/122 6/13/122
f 51/15/123 5/21/123 7/16/123
f 48/18/124 54/27/124 6/19/124
f 47/20/125 1/70/125 5/21/125
f 58/22/126 62/28/126 10/23/126
f 21/14/127 6/13/127 8/25/127
f 54/27/128 58/22/128 8/24/128
f 62/28/129 66/41/129 12/29/129
f 7/16/130 9/35/130 59/30/130
f 8/25/131 10/37/131 23/31/131
f 24/32/132 12/163/132 14/33/132
f 9/35/133 11/164/133 63/36/133
f 10/37/134 12/163/134 24/32/134
f 14/38/135 70/165/135 86/39/135
f 66/41/136 70/166/136 14/42/136
f 63/36/137 11/164/137 13/43/137
f 26/45/138 15/48/138 17/46/138
f 49/7/139 73/54/139 15/48/139
f 20/50/140 3/49/140 15/48/140
f 78/51/141 18/55/141 108/52/141
f 73/54/142 77/56/142 17/46/142
f 74/3/143 16/2/143 18/55/143
f 77/56/144 111/152/144 110/57/144
f 20/50/145 26/45/145 16/2/145
f 26/45/146 27/47/146 18/55/146
f 13/59/147 25/40/147 86/39/147
f 23/31/148 24/32/148 11/61/148
f 11/61/32 24/32/32 25/34/32
f 22/26/149 23/31/149 9/62/149
f 5/65/150 21/14/150 22/26/150
f 1/66/151 19/6/151 21/14/151
f 28/67/152 30/4/152 33/68/152
f 3/49/153 20/50/153 30/4/153
f 92/10/4 29/12/4 4/58/4
f 93/9/154 28/8/154 1/70/154
f 20/50/155 4/58/155 29/71/155
f 31/72/156 35/87/156 36/73/156
f 1/66/157 31/72/157 32/74/157
f 19/6/158 32/74/158 33/68/158
f 1/70/159 28/8/159 34/75/159
f 38/77/160 37/80/160 41/78/160
f 34/69/161 33/68/161 37/80/161
f 32/74/162 36/73/162 37/80/162
f 31/76/163 34/75/163 38/81/163
f 42/79/164 41/78/164 40/83/164
f 36/73/50 40/83/50 41/78/50
f 35/82/51 38/81/51 42/85/51
f 35/87/52 39/84/52 40/83/52
f 50/1/165 74/3/165 72/88/165
f 94/90/166 79/95/166 44/91/166
f 90/93/167 45/121/167 49/7/167
f 92/10/168 91/167/168 44/94/168
f 79/95/169 81/103/169 53/96/169
f 51/15/170 55/17/170 56/97/170
f 53/99/171 54/27/171 48/18/171
f 47/20/172 51/15/172 52/98/172
f 61/101/173 62/28/173 58/22/173
f 81/103/174 82/107/174 57/104/174
f 57/102/175 58/22/175 54/27/175
f 65/105/176 66/41/176 62/28/176
f 59/30/177 60/111/177 56/97/177
f 83/106/178 61/112/178 57/104/178
f 84/108/179 85/131/179 69/109/179
f 63/36/180 64/117/180 60/111/180
f 84/108/181 65/110/181 61/112/181
f 86/39/182 70/165/182 69/113/182
f 69/115/183 70/166/183 66/41/183
f 63/36/184 67/44/184 68/116/184
f 87/118/185 88/126/185 75/119/185
f 71/120/186 73/54/186 49/7/186
f 80/122/187 87/118/187 71/120/187
f 75/119/188 88/126/188 113/123/188
f 75/119/189 77/56/189 73/54/189
f 74/3/190 78/51/190 76/125/190
f 88/126/191 76/125/191 112/127/191
f 72/88/192 87/118/192 80/122/192
f 76/125/193 88/126/193 87/118/193
f 68/128/194 67/60/194 86/39/194
f 64/129/195 84/108/195 83/106/195
f 64/129/84 68/168/84 85/131/84
f 60/130/196 83/106/196 82/107/196
f 52/133/197 56/132/197 82/107/197
f 43/134/198 52/133/198 81/103/198
f 90/135/199 98/144/199 97/136/199
f 45/121/200 90/135/200 94/90/200
f 46/89/168 91/167/168 92/10/168
f 43/100/201 90/93/201 93/9/201
f 80/122/202 94/90/202 91/92/202
f 100/137/203 99/151/203 95/138/203
f 96/139/204 95/138/204 43/134/204
f 97/136/205 96/139/205 79/95/205
f 43/100/206 95/145/206 98/140/206
f 102/141/207 106/147/207 105/142/207
f 98/144/208 102/141/208 101/143/208
f 101/143/209 100/137/209 96/139/209
f 95/145/210 99/149/210 102/146/210
f 106/147/211 103/169/211 104/148/211
f 105/142/102 104/148/102 100/137/102
f 99/149/103 103/170/103 106/150/103
f 104/148/104 103/169/104 99/151/104
f 111/152/212 118/160/212 117/153/212
f 108/52/213 109/158/213 116/154/213
f 113/123/214 121/157/214 122/156/214
f 112/127/215 120/161/215 121/157/215
f 27/47/216 109/158/216 108/52/216
f 77/56/217 75/119/217 114/124/217
f 78/51/218 107/53/218 112/127/218
f 17/46/219 110/57/219 109/158/219
f 119/159/113 89/162/113 115/155/113
f 119/159/113 116/154/113 117/153/113
f 119/159/113 121/157/113 120/161/113
f 122/156/113 121/157/113 119/159/113
f 107/53/220 108/52/220 115/155/220
f 111/152/221 114/124/221 122/156/221
f 107/53/222 89/162/222 120/161/222
f 109/158/223 110/57/223 117/153/223
