# Blender v2.93.4 OBJ File: 'sword.blend'
# www.blender.org
mtllib sword.mtl
o Cube_Cube.002
v 0.250437 0.682149 -0.000000
v 0.153973 5.285028 -0.000000
v 0.080539 5.574419 -0.000000
v 0.122273 5.285028 -0.024282
v 0.198876 0.682149 0.024282
v 0.198876 0.682149 -0.024282
v 0.122273 5.285028 0.024282
v 0.063957 5.574419 -0.014457
v 0.063957 5.574419 0.014457
v 0.098752 0.420111 -0.049345
v 0.198876 0.472949 0.055443
v 0.198876 0.472949 -0.055444
v 0.098752 0.420111 0.049344
v 0.098752 -0.346632 0.049344
v 0.098752 -0.346632 -0.049345
v 0.098752 -0.440793 0.049344
v 0.098752 -0.440793 -0.049345
v 0.349367 -0.621045 0.077796
v 0.349367 -0.621045 -0.077796
v 0.349367 -0.693684 0.077796
v 0.349367 -0.693684 -0.077796
v 0.198876 0.644885 -0.055444
v 0.198876 0.644885 0.055443
v 0.640322 0.465310 -0.000000
v 0.640322 0.256110 -0.055444
v 0.640322 0.256110 0.055443
v 0.640322 0.428046 -0.055444
v 0.640322 0.428046 0.055443
v -0.153973 5.285028 -0.000000
v -0.250437 0.682149 -0.000000
v 0.000000 0.682149 -0.040330
v 0.000000 5.285028 -0.040330
v 0.000000 0.682149 0.040329
v 0.000000 5.285028 0.040329
v 0.000000 5.574419 -0.024011
v -0.080539 5.574419 -0.000000
v 0.000000 5.574419 0.024011
v 0.000000 5.681139 -0.000000
v -0.122273 5.285028 -0.024282
v -0.198876 0.682149 0.024282
v -0.198876 0.682149 -0.024282
v -0.122273 5.285028 0.024282
v -0.063957 5.574419 -0.014457
v -0.063957 5.574419 0.014457
v 0.000000 0.420111 -0.081956
v -0.098752 0.420111 -0.049345
v -0.198876 0.472949 0.055443
v -0.198876 0.472949 -0.055444
v 0.000000 0.472949 -0.092086
v 0.000000 0.472949 0.092084
v 0.000000 0.420111 0.081954
v -0.098752 0.420111 0.049344
v 0.000000 -0.346632 0.081954
v -0.098752 -0.346632 0.049344
v 0.000000 -0.346632 -0.081956
v -0.098752 -0.346632 -0.049345
v 0.000000 -0.440793 0.081954
v -0.098752 -0.440793 0.049344
v 0.000000 -0.440793 -0.081956
v -0.098752 -0.440793 -0.049345
v 0.000000 -0.621045 0.129209
v -0.349367 -0.621045 0.077796
v 0.000000 -0.621045 -0.129210
v -0.349367 -0.621045 -0.077796
v 0.000000 -0.693684 0.129209
v -0.349367 -0.693684 0.077796
v 0.000000 -0.693684 -0.129210
v -0.349367 -0.693684 -0.077796
v 0.000000 0.644885 0.092084
v -0.198876 0.644885 -0.055444
v 0.000000 0.644885 -0.092086
v -0.198876 0.644885 0.055443
v -0.640322 0.465310 -0.000000
v -0.640322 0.256110 -0.055444
v -0.640322 0.256110 0.055443
v -0.640322 0.428046 -0.055444
v -0.640322 0.428046 0.055443
vt 0.131566 0.783892
vt 0.122594 0.062056
vt 0.139710 0.783808
vt 0.131506 0.789818
vt 0.100305 0.816956
vt 0.100231 0.789993
vt 0.098351 0.062222
vt 0.108318 0.016748
vt 0.117564 0.062132
vt 0.282192 0.062180
vt 0.301369 0.784014
vt 0.270178 0.783972
vt 0.288738 0.016735
vt 0.291338 0.016773
vt 0.301369 0.062223
vt 0.301369 0.016800
vt 0.277221 0.062115
vt 0.262092 0.783907
vt 0.110953 0.016703
vt 0.116249 0.945324
vt 0.100724 0.960215
vt 0.100684 0.945450
vt 0.100340 0.784012
vt 0.301369 0.825216
vt 0.285882 0.945364
vt 0.285882 0.825129
vt 0.859832 0.368874
vt 0.843397 0.353171
vt 0.858875 0.353171
vt 0.115917 0.825089
vt 0.100352 0.825214
vt 0.270178 0.789898
vt 0.301369 0.816957
vt 0.270178 0.816860
vt 0.853914 0.353171
vt 0.869392 0.232919
vt 0.869392 0.353171
vt 0.116289 0.960089
vt 0.100688 0.988605
vt 0.853914 0.232919
vt 0.869392 0.218151
vt 0.301369 0.945452
vt 0.285882 0.960131
vt 0.849452 0.189881
vt 0.873854 0.178488
vt 0.873854 0.189881
vt 0.301369 0.988609
vt 0.246576 0.988472
vt 0.853914 0.218151
vt 0.833113 0.068902
vt 0.865579 0.123695
vt 0.825049 0.123695
vt 0.155599 0.988333
vt 0.100719 0.999996
vt 0.246576 0.999863
vt 0.842441 0.438109
vt 0.848285 0.450613
vt 0.842441 0.455500
vt 0.200944 0.823902
vt 0.200826 0.823648
vt 0.825049 0.503729
vt 0.842440 0.476763
vt 0.842440 0.503729
vt 0.131581 0.816780
vt 0.200900 0.850611
vt 0.200944 0.817911
vt 0.842440 0.438109
vt 0.842440 0.368874
vt 0.069191 0.784048
vt 0.074303 0.062176
vt 0.079215 0.062227
vt 0.069132 0.789974
vt 0.088259 0.016798
vt 0.320546 0.062180
vt 0.332560 0.783972
vt 0.311400 0.016773
vt 0.301369 0.000000
vt 0.314001 0.016735
vt 0.325518 0.062115
vt 0.098277 0.000000
vt 0.098265 0.016798
vt 0.085693 0.016766
vt 0.340647 0.783907
vt 0.085277 0.945400
vt 0.316857 0.945364
vt 0.316857 0.825129
vt 0.825049 0.368874
vt 0.841484 0.353171
vt 0.842440 0.368874
vt 0.084945 0.825167
vt 0.069206 0.816935
vt 0.332560 0.789898
vt 0.301369 0.789995
vt 0.332560 0.816860
vt 0.829512 0.232919
vt 0.844990 0.353171
vt 0.829512 0.353171
vt 0.085317 0.960167
vt 0.829512 0.218151
vt 0.844990 0.232919
vt 0.316857 0.960131
vt 0.825049 0.178488
vt 0.849452 0.189881
vt 0.825049 0.189881
vt 0.301369 0.960218
vt 0.844990 0.218151
vt 0.833113 0.178488
vt 0.046026 0.988605
vt 0.356163 0.999863
vt 0.356163 0.988472
vt 0.848285 0.460387
vt 0.842441 0.472891
vt 0.842441 0.455500
vt 0.401795 0.823902
vt 0.061165 0.784002
vt 0.000000 0.824150
vt 0.825049 0.443953
vt 0.842440 0.470919
vt 0.825049 0.470919
vt 0.833745 0.438109
vt 0.842440 0.443953
vt 0.842440 0.438109
vt 0.849452 0.178488
vt 0.857515 0.068902
vt 0.155630 0.999723
vt 0.301369 1.000000
vt 0.848285 0.442996
vt 0.200944 0.850863
vt 0.200944 0.817657
vt 0.825049 0.476763
vt 0.833745 0.470919
vt 0.859832 0.438109
vt 0.826006 0.353171
vt 0.849452 0.178488
vt 0.857515 0.178488
vt 0.046057 0.999996
vt 0.848285 0.468004
vt 0.401795 0.850863
vt 0.000118 0.818159
vt 0.000074 0.851110
vt 0.401795 0.817911
vt 0.825049 0.438109
vn 0.4260 0.0089 -0.9047
vn 0.1812 0.0000 -0.9834
vn 0.1299 0.0598 -0.9897
vn 0.0804 0.0013 0.9968
vn 0.6491 0.1561 0.7445
vn 0.1475 0.0557 0.9875
vn 0.4260 0.0089 0.9047
vn 0.6010 0.1525 -0.7846
vn 0.3136 0.0000 -0.9496
vn 0.0804 0.0013 -0.9968
vn 0.3136 0.0000 0.9496
vn 0.4667 -0.8844 0.0000
vn 0.3085 -0.1791 -0.9342
vn 0.1812 0.0000 0.9834
vn 0.1648 -0.4156 0.8945
vn 1.0000 0.0000 0.0000
vn 0.3043 0.2416 -0.9214
vn 0.1370 0.3375 0.9313
vn 0.5839 0.8118 0.0000
vn 0.0000 -1.0000 0.0000
vn 0.1456 0.0000 -0.9893
vn 0.1456 0.0000 0.9893
vn 0.0000 0.0000 1.0000
vn 0.0618 0.6403 0.7657
vn 0.1070 0.8069 -0.5809
vn 0.3398 0.6033 0.7215
vn 0.3398 0.6033 -0.7215
vn 0.3097 0.6305 -0.7117
vn 0.0000 0.0000 -1.0000
vn 0.4191 0.7536 0.5065
vn -0.4409 -0.8976 0.0000
vn -0.6081 0.0101 -0.7938
vn -0.1812 0.0000 -0.9834
vn -0.1299 0.0598 -0.9897
vn -0.0804 0.0013 0.9968
vn -0.5887 0.4443 0.6753
vn -0.6010 0.1525 0.7846
vn -0.1442 0.2172 -0.9654
vn -0.5887 0.4443 -0.6753
vn -0.1299 0.0598 0.9897
vn -0.1442 0.2172 0.9654
vn -0.4260 0.0089 0.9047
vn -0.6010 0.1525 -0.7846
vn -0.3136 0.0000 -0.9496
vn -0.1301 0.0000 -0.9915
vn -0.3136 0.0000 0.9496
vn -0.4667 -0.8844 0.0000
vn -0.1648 -0.4155 -0.8945
vn -0.1812 0.0000 0.9834
vn -0.1648 -0.4156 0.8945
vn -1.0000 0.0000 0.0000
vn -0.3043 0.2416 -0.9214
vn -0.3043 0.2416 0.9214
vn -0.5839 0.8118 0.0000
vn -0.1456 0.0000 -0.9893
vn -0.1456 0.0000 0.9893
vn -0.0618 0.6403 0.7657
vn -0.0618 0.6403 -0.7657
vn -0.3398 0.6033 0.7215
vn -0.3398 0.6033 -0.7215
vn -0.3097 0.6305 -0.7117
vn -0.3097 0.6305 0.7118
vn 0.4409 -0.8976 0.0000
vn 0.6081 0.0101 -0.7938
vn 0.1475 0.0557 -0.9875
vn 0.1301 0.0000 0.9915
vn 0.5887 0.4443 0.6753
vn 0.6010 0.1525 0.7846
vn 0.1442 0.2172 -0.9654
vn 0.5887 0.4443 -0.6753
vn 0.1299 0.0598 0.9897
vn 0.1442 0.2172 0.9654
vn 0.6081 0.0101 0.7938
vn 0.6491 0.1561 -0.7445
vn 0.1301 0.0000 -0.9915
vn 0.1648 -0.4155 -0.8945
vn 0.3085 -0.1791 0.9342
vn 0.1370 0.3375 -0.9313
vn 0.3043 0.2416 0.9214
vn 0.1070 0.8069 0.5810
vn 0.0618 0.6403 -0.7657
vn 0.4191 0.7536 -0.5065
vn 0.3097 0.6305 0.7118
vn -0.4260 0.0089 -0.9047
vn -0.1475 0.0557 -0.9875
vn -0.1301 0.0000 0.9915
vn -0.6491 0.1561 0.7445
vn -0.1475 0.0557 0.9875
vn -0.6081 0.0101 0.7938
vn -0.6491 0.1561 -0.7445
vn -0.0804 0.0013 -0.9968
vn -0.3085 -0.1791 -0.9342
vn -0.3085 -0.1791 0.9342
vn -0.1370 0.3375 -0.9313
vn -0.1370 0.3375 0.9313
vn -0.1070 0.8069 0.5810
vn -0.1070 0.8069 -0.5809
vn -0.4191 0.7536 -0.5065
vn -0.4191 0.7536 0.5065
usemtl Material
s off
f 6/1/1 2/2/1 1/3/1
f 22/4/2 49/5/2 71/6/2
f 32/7/3 8/8/3 4/9/3
f 7/10/4 33/11/4 5/12/4
f 7/10/5 3/13/5 9/14/5
f 34/15/6 9/14/6 37/16/6
f 2/17/7 5/12/7 1/18/7
f 4/9/8 3/19/8 2/2/8
f 15/20/9 59/21/9 55/22/9
f 31/23/10 4/9/10 6/1/10
f 51/24/11 14/25/11 13/26/11
f 12/27/12 13/28/12 10/29/12
f 49/5/13 10/30/13 45/31/13
f 23/32/14 50/33/14 11/34/14
f 50/33/15 13/26/15 11/34/15
f 13/35/16 15/36/16 10/37/16
f 10/30/9 55/22/9 45/31/9
f 17/38/17 63/39/17 59/21/17
f 14/40/16 17/41/16 15/36/16
f 53/42/11 16/43/11 14/25/11
f 18/44/16 21/45/16 19/46/16
f 16/43/18 61/47/18 18/48/18
f 16/49/19 19/46/19 17/41/19
f 21/50/20 65/51/20 67/52/20
f 19/53/21 67/54/21 63/39/21
f 61/47/22 20/55/22 18/48/22
f 22/56/16 5/57/16 23/58/16
f 11/34/23 28/59/23 23/32/23
f 33/11/24 23/32/24 5/12/24
f 31/23/25 22/4/25 71/6/25
f 1/18/26 5/12/26 23/32/26
f 6/1/27 1/3/27 22/4/27
f 1/3/28 27/60/28 22/4/28
f 25/61/16 28/62/16 26/63/16
f 12/64/29 27/60/29 25/65/29
f 1/18/30 28/59/30 24/66/30
f 12/27/31 26/67/31 11/68/31
f 41/69/32 29/70/32 39/71/32
f 49/5/33 70/72/33 71/6/33
f 43/73/34 32/7/34 39/71/34
f 33/11/35 42/74/35 40/75/35
f 44/76/36 38/77/36 36/78/36
f 42/74/37 36/78/37 29/79/37
f 43/73/38 38/80/38 35/81/38
f 36/82/39 38/80/39 43/73/39
f 34/15/40 44/76/40 42/74/40
f 37/16/41 38/77/41 44/76/41
f 40/75/42 29/79/42 30/83/42
f 36/82/43 39/71/43 29/70/43
f 59/21/44 56/84/44 55/22/44
f 31/23/45 39/71/45 32/7/45
f 54/85/46 51/24/46 52/86/46
f 48/87/47 52/88/47 47/89/47
f 49/5/48 46/90/48 48/91/48
f 72/92/49 50/33/49 69/93/49
f 52/86/50 50/33/50 47/94/50
f 56/95/51 52/96/51 46/97/51
f 55/22/44 46/90/44 45/31/44
f 63/39/52 60/98/52 59/21/52
f 60/99/51 54/100/51 56/95/51
f 58/101/46 53/42/46 54/85/46
f 68/102/51 62/103/51 64/104/51
f 58/101/53 61/47/53 57/105/53
f 64/104/54 58/106/54 60/99/54
f 65/51/20 68/107/20 67/52/20
f 67/54/55 64/108/55 63/39/55
f 66/109/56 61/47/56 62/110/56
f 40/111/51 70/112/51 72/113/51
f 77/114/23 47/94/23 72/92/23
f 72/92/57 33/11/57 40/75/57
f 31/23/58 70/72/58 41/69/58
f 30/83/59 72/92/59 40/75/59
f 41/69/60 70/72/60 30/115/60
f 76/116/61 30/115/61 70/72/61
f 77/117/51 74/118/51 75/119/51
f 77/117/51 73/120/51 76/121/51
f 48/91/29 76/116/29 70/72/29
f 30/83/62 77/114/62 72/92/62
f 75/122/63 48/87/63 47/89/63
f 6/1/64 4/9/64 2/2/64
f 22/4/2 12/64/2 49/5/2
f 32/7/65 35/81/65 8/8/65
f 7/10/66 34/15/66 33/11/66
f 9/14/67 3/13/67 38/77/67
f 7/10/68 2/17/68 3/13/68
f 8/8/69 35/81/69 38/80/69
f 3/19/70 8/8/70 38/80/70
f 34/15/71 7/10/71 9/14/71
f 37/16/72 9/14/72 38/77/72
f 2/17/73 7/10/73 5/12/73
f 4/9/74 8/8/74 3/19/74
f 15/20/9 17/38/9 59/21/9
f 31/23/75 32/7/75 4/9/75
f 51/24/11 53/42/11 14/25/11
f 12/27/12 11/68/12 13/28/12
f 49/5/76 12/64/76 10/30/76
f 23/32/14 69/93/14 50/33/14
f 50/33/77 51/24/77 13/26/77
f 13/35/16 14/40/16 15/36/16
f 10/30/9 15/20/9 55/22/9
f 17/38/78 19/53/78 63/39/78
f 14/40/16 16/49/16 17/41/16
f 53/42/11 57/105/11 16/43/11
f 18/44/16 20/123/16 21/45/16
f 16/43/79 57/105/79 61/47/79
f 16/49/19 18/44/19 19/46/19
f 21/50/20 20/124/20 65/51/20
f 19/53/21 21/125/21 67/54/21
f 61/47/22 65/126/22 20/55/22
f 22/56/16 6/127/16 5/57/16
f 11/34/23 26/128/23 28/59/23
f 33/11/80 69/93/80 23/32/80
f 31/23/81 6/1/81 22/4/81
f 1/3/82 24/129/82 27/60/82
f 25/61/16 27/130/16 28/62/16
f 28/62/16 27/130/16 24/131/16
f 12/64/29 22/4/29 27/60/29
f 1/18/83 23/32/83 28/59/83
f 12/27/31 25/132/31 26/67/31
f 41/69/84 30/115/84 29/70/84
f 49/5/33 48/91/33 70/72/33
f 43/73/85 35/81/85 32/7/85
f 33/11/86 34/15/86 42/74/86
f 42/74/87 44/76/87 36/78/87
f 34/15/88 37/16/88 44/76/88
f 40/75/89 42/74/89 29/79/89
f 36/82/90 43/73/90 39/71/90
f 59/21/44 60/98/44 56/84/44
f 31/23/91 41/69/91 39/71/91
f 54/85/46 53/42/46 51/24/46
f 48/87/47 46/133/47 52/88/47
f 49/5/92 45/31/92 46/90/92
f 72/92/49 47/94/49 50/33/49
f 52/86/93 51/24/93 50/33/93
f 56/95/51 54/100/51 52/96/51
f 55/22/44 56/84/44 46/90/44
f 63/39/94 64/108/94 60/98/94
f 60/99/51 58/106/51 54/100/51
f 58/101/46 57/105/46 53/42/46
f 68/102/51 66/134/51 62/103/51
f 58/101/95 62/110/95 61/47/95
f 64/104/54 62/103/54 58/106/54
f 65/51/20 66/135/20 68/107/20
f 67/54/55 68/136/55 64/108/55
f 66/109/56 65/126/56 61/47/56
f 40/111/51 41/137/51 70/112/51
f 77/114/23 75/138/23 47/94/23
f 72/92/96 69/93/96 33/11/96
f 31/23/97 71/6/97 70/72/97
f 76/116/98 73/139/98 30/115/98
f 77/117/51 76/121/51 74/118/51
f 48/91/29 74/140/29 76/116/29
f 30/83/99 73/141/99 77/114/99
f 75/122/63 74/142/63 48/87/63
