# Blender v2.93.4 OBJ File: 'test.blend'
# www.blender.org
mtllib test.mtl
o Cube_Cube.002
v 0.714667 -0.292805 0.238807
v 0.068979 0.969759 0.819131
v 0.022377 -0.457749 -0.637774
v 0.155117 1.000000 -0.768691
v 0.738762 -0.470997 1.652586
v 0.299279 0.428504 1.653966
v 1.192718 0.125689 2.407810
v 0.924401 0.549329 2.150618
v 1.552732 0.732642 2.742113
v 1.377195 1.100909 2.563781
v 1.720160 0.992273 2.970977
v 1.712606 1.291422 2.955056
v 2.059590 0.360323 3.282039
v 2.071393 1.327785 3.311898
v -0.100321 -0.285106 -1.348395
v -0.120123 0.289761 -1.624871
v -0.023481 0.052236 -1.767511
v -0.091420 0.323996 -1.860536
v 0.250346 0.286541 0.670404
v 0.165491 0.229961 -0.682127
v 0.573394 -0.069163 1.565512
v 1.100465 0.341033 2.244014
v 1.502192 0.921985 2.625407
v 1.748772 1.144464 2.938660
v 2.078696 0.511977 3.254498
v -0.066862 0.005202 -1.474195
v -0.021346 0.207001 -1.785284
v 0.102464 -0.263984 -0.162410
v 0.104170 0.997619 0.019061
v 0.114254 0.176938 0.112533
v 1.082986 0.171706 -0.064789
v 1.094823 0.611529 -0.167265
v 0.752076 0.633104 -0.331185
v 0.857522 0.248811 -0.331962
v 1.526272 -0.506542 -0.544060
v 1.570478 -0.278750 -0.789199
v 1.316796 -0.203708 -0.863767
v 1.266454 -0.409649 -0.642170
v 1.022969 -1.379320 -0.697804
v 1.058521 -1.221602 -0.994109
v 0.873645 -1.017028 -0.986676
v 0.837039 -1.152883 -0.716763
v -0.976633 -0.242676 1.510278
v -1.217103 0.974308 0.616339
v -1.479835 -0.526501 -0.424506
v -1.302409 1.000000 -0.768691
v -0.277828 -0.949432 0.938687
v -0.571866 1.068527 0.756022
v -0.692396 -0.734454 -0.599369
v -0.573646 1.144910 -0.821334
v 0.358699 -0.576945 1.889482
v 0.122054 -0.529977 1.914781
v -0.497667 0.390152 1.731646
v -0.103402 0.487766 1.781978
v 1.039723 0.024076 2.617387
v 0.823495 0.065446 2.652397
v 0.548998 0.495485 2.417857
v 0.670913 0.632617 2.261374
v 1.407718 0.643417 2.970356
v 1.163982 0.685188 3.018571
v 0.986494 1.067828 2.823546
v 1.127682 1.185652 2.640047
v 1.614251 0.871820 3.113487
v 1.448227 0.965443 3.164598
v 1.440707 1.265498 3.152420
v 1.557796 1.395468 3.036602
v 1.995338 0.273274 3.444734
v 1.786870 0.343595 3.459697
v 1.801189 1.301763 3.509825
v 1.994287 1.405652 3.479373
v -1.001211 -0.327423 -1.416711
v -1.045437 0.269973 -1.652745
v -0.528381 -0.448234 -1.395619
v -0.588291 0.387506 -1.744158
v -0.385952 -0.160637 -2.084816
v -0.449363 0.100514 -2.187615
v -0.060787 -0.091387 -2.010901
v -0.240917 0.322700 -2.095792
v -0.935811 0.357713 0.813080
v -1.390405 0.215956 -0.672978
v -0.186877 -0.127666 1.846470
v 0.670859 0.271638 2.554241
v 1.050691 0.873338 2.944700
v 1.412707 1.111603 3.181202
v 1.742528 0.488097 3.477644
v 2.001724 0.508586 3.467161
v -1.078609 -0.035484 -1.537362
v -0.451335 -0.051213 -2.171607
v 1.274395 0.826422 -3.965659
v -1.586272 -0.384662 0.878773
v -1.306954 0.992316 -0.033364
v -0.573646 1.157981 -0.033649
v -0.646775 -0.873769 0.268898
v -1.389984 0.152558 0.136071
v -1.198012 0.244083 1.927426
v -1.395698 0.652726 1.889585
v -1.685169 0.555479 1.663202
v -1.535042 0.205690 1.798709
v -1.249500 -0.266463 2.717605
v -1.499330 -0.060848 2.813750
v -1.693198 -0.089643 2.620677
v -1.471759 -0.278138 2.525292
v -1.386884 -1.285458 2.831954
v -1.655602 -1.126768 2.960578
v -1.800653 -1.045865 2.740351
v -1.560170 -1.185914 2.617558
v 0.651628 0.484849 -3.051608
v 0.737146 0.483264 -2.868268
v 0.790681 0.409021 -2.820504
v 0.800026 0.306205 -2.819632
v 0.769497 0.201152 -2.989811
v 0.517785 0.341421 -3.101039
v 0.527129 0.238605 -3.100167
v 0.580664 0.164362 -3.052403
v 1.413148 0.868177 -3.839216
v 1.486801 0.815945 -3.790554
v 1.523409 0.720645 -3.783567
v 1.450495 0.591658 -3.876566
v 1.370180 0.699479 -3.917014
v 1.229255 0.654379 -4.046102
v 1.265863 0.559078 -4.039116
v 1.339516 0.506847 -3.990453
vt 0.625000 0.625000
vt 0.625000 0.750000
vt 0.625000 0.625000
vt 0.500000 0.875000
vt 0.625000 1.000000
vt 0.500000 1.000000
vt 0.375000 0.625000
vt 0.250000 0.750000
vt 0.250000 0.625000
vt 0.750000 0.625000
vt 0.875000 0.750000
vt 0.750000 0.750000
vt 0.625000 1.000000
vt 0.500000 1.000000
vt 0.125000 0.625000
vt 0.125000 0.750000
vt 0.125000 0.625000
vt 0.875000 0.625000
vt 0.875000 0.750000
vt 0.125000 0.625000
vt 0.125000 0.750000
vt 0.875000 0.625000
vt 0.875000 0.750000
vt 0.875000 0.750000
vt 0.625000 1.000000
vt 0.500000 1.000000
vt 0.875000 0.625000
vt 0.875000 0.625000
vt 0.875000 0.750000
vt 0.125000 0.625000
vt 0.500000 1.000000
vt 0.500000 1.000000
vt 0.625000 1.000000
vt 0.500000 1.000000
vt 0.125000 0.750000
vt 0.125000 0.625000
vt 0.625000 1.000000
vt 0.625000 0.000000
vt 0.500000 0.125000
vt 0.500000 0.000000
vt 0.875000 0.625000
vt 0.875000 0.750000
vt 0.125000 0.750000
vt 0.125000 0.625000
vt 0.500000 0.750000
vt 0.375000 0.750000
vt 0.500000 0.750000
vt 0.375000 0.750000
vt 0.375000 0.750000
vt 0.500000 0.750000
vt 0.625000 0.625000
vt 0.625000 0.750000
vt 0.625000 0.625000
vt 0.375000 0.625000
vt 0.625000 0.750000
vt 0.375000 0.625000
vt 0.375000 0.750000
vt 0.625000 0.750000
vt 0.375000 0.000000
vt 0.375000 0.125000
vt 0.375000 1.000000
vt 0.375000 1.000000
vt 0.375000 1.000000
vt 0.375000 1.000000
vt 0.375000 1.000000
vt 0.375000 1.000000
vt 0.375000 0.875000
vt 0.500000 0.875000
vt 0.375000 0.875000
vt 0.125000 0.750000
vt 0.625000 0.875000
vt 0.375000 1.000000
vt 0.500000 1.000000
vt 0.500000 1.000000
vt 0.250000 0.750000
vt 0.125000 0.750000
vt 0.375000 0.875000
vt 0.500000 0.875000
vt 0.375000 0.875000
vt 0.500000 0.875000
vt 0.250000 0.750000
vt 0.125000 0.750000
vt 0.500000 1.000000
vt 0.375000 1.000000
vt 0.250000 0.750000
vt 0.125000 0.750000
vt 0.375000 1.000000
vt 0.625000 0.750000
vt 0.625000 0.750000
vt 0.500000 0.875000
vt 0.625000 1.000000
vt 0.625000 0.875000
vt 0.250000 0.750000
vt 0.875000 0.750000
vt 0.500000 1.000000
vt 0.625000 1.000000
vt 0.125000 0.750000
vt 0.125000 0.750000
vt 0.875000 0.750000
vt 0.125000 0.750000
vt 0.875000 0.750000
vt 0.875000 0.750000
vt 0.500000 1.000000
vt 0.625000 1.000000
vt 0.875000 0.750000
vt 0.500000 1.000000
vt 0.500000 1.000000
vt 0.500000 1.000000
vt 0.625000 1.000000
vt 0.625000 1.000000
vt 0.125000 0.750000
vt 0.625000 1.000000
vt 0.625000 0.000000
vt 0.500000 0.000000
vt 0.875000 0.750000
vt 0.125000 0.750000
vt 0.125000 0.750000
vt 0.500000 0.750000
vt 0.375000 0.750000
vt 0.375000 0.750000
vt 0.375000 0.750000
vt 0.500000 0.750000
vt 0.500000 0.750000
vt 0.375000 0.750000
vt 0.625000 0.750000
vt 0.500000 0.750000
vt 0.625000 0.750000
vt 0.375000 0.000000
vt 0.375000 1.000000
vt 0.375000 1.000000
vt 0.500000 1.000000
vt 0.375000 1.000000
vt 0.375000 1.000000
vt 0.375000 1.000000
vt 0.375000 0.875000
vt 0.500000 0.875000
vt 0.500000 1.000000
vt 0.375000 1.000000
vt 0.500000 1.000000
vt 0.250000 0.750000
vt 0.375000 0.875000
vt 0.500000 0.875000
vt 0.500000 0.875000
vt 0.375000 0.875000
vt 0.125000 0.750000
vt 0.250000 0.750000
vt 0.375000 0.875000
vt 0.500000 1.000000
vt 0.125000 0.750000
vt 0.250000 0.750000
vt 0.375000 1.000000
vt 0.375000 0.625000
vt 0.375000 0.750000
vt 0.500000 0.750000
vt 0.625000 0.750000
vt 0.375000 0.750000
vt 0.500000 0.750000
vt 0.500000 0.750000
vt 0.500000 0.625000
vt 0.375000 0.625000
vt 0.625000 0.750000
vt 0.625000 0.625000
vt 0.625000 1.000000
vt 0.125000 0.750000
vt 0.625000 0.125000
vt 0.875000 0.625000
vt 0.750000 0.750000
vt 0.375000 1.000000
vt 0.375000 1.000000
vt 0.125000 0.750000
vn 0.3076 0.7331 -0.6066
vn 0.9104 0.3030 -0.2816
vn 0.5663 -0.8086 -0.1595
vn 0.2268 0.9730 0.0439
vn 0.8615 0.4948 -0.1143
vn 0.6168 -0.7840 0.0702
vn 0.0785 0.8462 0.5270
vn 0.3430 -0.9296 0.1346
vn -0.1125 0.6532 -0.7488
vn 0.6774 0.2648 -0.6863
vn 0.0476 0.9551 -0.2923
vn 0.1276 0.8443 -0.5205
vn 0.7567 -0.5989 0.2620
vn 0.5789 0.1283 -0.8052
vn 0.7423 0.0536 -0.6680
vn 0.6827 -0.7142 0.1546
vn 0.6771 0.2326 -0.6982
vn 0.9403 -0.0155 0.3401
vn 0.3390 0.8386 -0.4263
vn -0.5294 -0.6432 -0.5532
vn 0.9892 0.0032 0.1468
vn 0.3340 -0.9011 -0.2766
vn 0.9533 -0.2057 -0.2213
vn -0.1140 0.9916 0.0618
vn 0.3500 -0.7600 -0.5476
vn 0.1092 0.9912 -0.0748
vn 0.6289 -0.7080 0.3214
vn 0.9565 -0.0198 -0.2910
vn 0.9533 0.2599 0.1539
vn 0.9387 -0.0579 0.3398
vn 0.8506 -0.0921 -0.5178
vn 0.4145 -0.2129 -0.8848
vn 0.7824 -0.1284 -0.6094
vn 0.8623 -0.0155 -0.5061
vn 0.9217 0.3865 0.0330
vn -0.1869 -0.0493 -0.9812
vn 0.9733 0.1022 -0.2056
vn 0.1961 0.9804 -0.0163
vn 0.3685 -0.8791 -0.3023
vn 0.9976 0.0197 0.0656
vn 0.8526 0.0967 0.5136
vn 0.6987 0.0273 0.7149
vn -0.5886 0.8083 -0.0152
vn 0.4266 -0.7070 -0.5641
vn -0.8643 0.4865 0.1277
vn -0.8331 -0.2978 -0.4661
vn 0.3572 0.6610 -0.6599
vn -0.4661 -0.6931 0.5498
vn -0.6906 -0.6008 -0.4026
vn 0.2800 -0.0075 -0.9600
vn -0.1824 -0.0676 0.9809
vn 0.8746 -0.4236 -0.2359
vn -0.1924 0.7285 -0.6575
vn -0.9823 0.1252 0.1393
vn -0.5140 -0.8508 -0.1095
vn -0.1672 0.9796 0.1113
vn -0.8677 -0.2609 0.4231
vn -0.0753 -0.7397 0.6687
vn -0.2379 0.7889 0.5666
vn -0.3855 -0.7799 0.4931
vn -0.7752 0.6296 -0.0522
vn -0.5337 -0.1352 0.8348
vn -0.2631 0.9294 0.2587
vn -0.4933 0.8534 0.1684
vn 0.0407 -0.5129 0.8575
vn -0.7305 0.0182 0.6826
vn -0.6940 0.2524 0.6743
vn 0.0641 -0.5709 0.8185
vn -0.6379 0.2444 0.7303
vn 0.0437 -0.0426 0.9981
vn -0.4750 0.7840 0.3996
vn -0.5202 -0.5805 -0.6264
vn -0.6053 -0.4358 -0.6662
vn -0.3086 -0.8928 -0.3280
vn -0.8969 -0.0394 -0.4405
vn -0.3912 -0.6806 -0.6194
vn -0.2081 -0.8866 -0.4130
vn -0.3097 0.7511 -0.5831
vn -0.6762 -0.0677 -0.7336
vn -0.9423 0.0657 -0.3282
vn -0.6851 -0.1911 -0.7029
vn 0.0487 -0.1084 0.9929
vn -0.4916 0.0454 0.8696
vn -0.8689 -0.2591 0.4218
vn -0.6339 -0.1045 0.7663
vn -0.5332 -0.2735 0.8005
vn -0.3586 0.7176 0.5970
vn -0.9758 0.0702 -0.2071
vn -0.9924 0.1229 0.0101
vn -0.1961 0.9804 -0.0163
vn -0.5883 -0.7732 0.2367
vn -0.9938 0.1109 -0.0050
vn 0.8015 0.4265 0.4192
vn 0.9054 0.2940 0.3062
vn -0.0437 0.9639 -0.2628
vn -0.3562 -0.7773 0.5186
vn -0.4394 -0.0628 -0.8961
vn -0.8153 -0.4771 -0.3283
vn -0.5807 0.6774 0.4515
vn 0.2980 -0.7824 -0.5469
vn -0.4992 -0.8664 0.0105
vn -0.7082 0.1655 0.6864
vn 0.6521 -0.1393 -0.7452
vn 0.4053 0.0662 0.9118
vn 0.7209 -0.6401 0.2658
vn 0.2530 0.8260 0.5036
vn -0.4227 -0.6859 -0.5924
vn -0.7710 -0.0754 -0.6323
vn 0.5257 0.6600 0.5366
vn 0.2224 -0.9697 -0.1011
vn -0.5703 0.7075 -0.4173
vn 0.7796 0.0608 0.6234
vn 0.6304 0.1869 -0.7535
vn -0.3663 0.9255 0.0963
vn 0.5611 -0.8250 0.0676
vn -0.6587 0.7051 -0.2624
vn 0.7027 0.3166 0.6371
vn 0.1918 0.7242 -0.6624
vn 0.9989 0.0173 0.0445
vn 0.3584 -0.8841 0.3000
vn 0.1407 0.9838 0.1111
vn 0.9580 0.2733 -0.0871
vn 0.4551 -0.8112 0.3673
vn 0.2533 0.8869 0.3864
vn 0.4891 -0.8643 -0.1173
vn -0.0460 0.5900 -0.8061
vn 0.5147 0.4167 -0.7493
vn 0.1030 0.8938 -0.4364
vn 0.1918 0.7661 -0.6134
vn 0.7642 -0.5930 0.2537
vn 0.5793 0.1274 -0.8051
vn 0.6715 0.2433 -0.6999
vn 0.7986 -0.5949 0.0907
vn 0.6745 0.2437 -0.6969
vn 0.9087 0.0018 0.4175
vn 0.2791 0.9134 -0.2962
vn -0.3629 -0.5611 -0.7440
vn 0.9890 -0.0544 0.1376
vn 0.3687 -0.8963 -0.2462
vn 0.9530 -0.2123 -0.2161
vn -0.1113 0.9916 0.0652
vn 0.7661 -0.5980 0.2354
vn 0.1622 0.9735 0.1612
vn 0.6298 -0.7064 0.3231
vn 0.9572 0.0265 -0.2883
vn 0.5541 0.6590 0.5086
vn 0.9391 -0.0568 0.3390
vn 0.8398 -0.2592 -0.4770
vn 0.3622 -0.2583 -0.8956
vn 0.7891 -0.1556 -0.5942
vn 0.7316 0.1573 -0.6634
vn 0.7708 0.6366 -0.0252
vn -0.6977 0.3924 -0.5994
vn 0.9784 -0.2004 0.0497
vn 0.2289 0.9733 0.0177
vn 0.3194 -0.7766 -0.5431
vn 0.9977 0.0207 0.0646
vn 0.8681 0.2757 0.4128
vn 0.4727 0.1879 0.8610
vn -0.0789 0.9536 0.2905
vn 0.3559 -0.7207 -0.5949
vn -0.8711 0.4424 0.2133
vn -0.8239 -0.2250 -0.5201
vn 0.3849 0.6579 -0.6474
vn -0.6826 -0.6121 0.3994
vn -0.6876 -0.6069 -0.3987
vn 0.1228 0.1466 -0.9815
vn -0.3218 0.0913 0.9424
vn 0.8678 -0.4743 -0.1483
vn -0.3096 0.7374 -0.6003
vn -0.7923 -0.1749 0.5845
vn -0.2365 -0.9678 0.0860
vn -0.2200 0.9738 0.0574
vn -0.8206 -0.4026 0.4056
vn -0.0377 -0.7530 0.6570
vn -0.2656 0.7820 0.5639
vn -0.1301 -0.8905 0.4360
vn -0.7235 0.6798 -0.1202
vn -0.6596 0.0952 0.7456
vn -0.4039 0.8206 0.4044
vn -0.5996 0.7610 0.2477
vn 0.0741 -0.5372 0.8402
vn -0.7651 0.1391 0.6287
vn -0.6505 0.0169 0.7593
vn 0.0079 -0.4683 0.8835
vn -0.6371 0.2521 0.7284
vn 0.1621 -0.0121 0.9867
vn -0.3944 0.8414 0.3695
vn -0.2532 -0.5868 -0.7691
vn -0.5164 -0.6999 -0.4934
vn -0.2146 -0.9042 -0.3692
vn -0.9126 -0.3374 -0.2310
vn -0.3690 -0.7028 -0.6082
vn 0.2669 -0.9078 -0.3236
vn -0.4611 0.6721 -0.5794
vn -0.6759 -0.0686 -0.7338
vn -0.9426 -0.0235 -0.3332
vn -0.7103 -0.0647 -0.7009
vn 0.0391 -0.0959 0.9946
vn -0.4368 -0.2056 0.8757
vn -0.8823 -0.3143 0.3503
vn -0.6427 -0.0882 0.7611
vn -0.6602 -0.1371 0.7385
vn -0.3723 -0.1298 0.9190
vn -0.9218 -0.3009 0.2444
vn -0.9716 0.2132 -0.1026
vn -0.2204 0.9754 0.0088
vn -0.2058 -0.8933 0.3995
vn -0.9949 0.1001 0.0084
vn 0.6661 0.6060 0.4349
vn 0.9009 0.4333 -0.0275
vn -0.0867 0.9508 -0.2976
vn -0.1896 -0.6872 0.7013
vn -0.4742 -0.0432 -0.8794
vn -0.6898 -0.6289 -0.3587
vn -0.5638 0.6831 0.4642
vn 0.4433 -0.7658 -0.4659
vn -0.5056 -0.8627 0.0081
vn -0.7843 0.1961 0.5886
vn 0.7254 -0.1726 -0.6664
vn 0.4502 0.0394 0.8920
vn 0.7300 -0.6200 0.2876
vn 0.4235 0.6860 0.5917
vn -0.2641 -0.8301 -0.4911
vn -0.7043 -0.3171 -0.6352
vn 0.4948 0.6936 0.5235
vn 0.2284 -0.9687 -0.0972
vn -0.5829 0.6912 -0.4271
vn 0.7762 0.0759 0.6259
vn -0.3126 0.9373 0.1539
vn 0.2387 -0.9584 -0.1568
vn -0.8189 0.4050 -0.4066
vn 0.7815 0.0763 0.6193
usemtl None
s off
f 50/1/1 16/2/1 74/3/1
f 30/4/2 2/5/2 19/6/2
f 49/7/3 28/8/3 93/9/3
f 92/10/4 2/11/4 29/12/4
f 19/6/5 6/13/5 21/14/5
f 51/15/6 7/16/6 55/17/6
f 48/18/7 6/19/7 2/11/7
f 47/20/8 5/21/8 51/15/8
f 58/22/9 10/23/9 8/24/9
f 21/14/10 8/25/10 22/26/10
f 54/27/11 8/24/11 6/19/11
f 62/28/12 12/29/12 10/23/12
f 7/16/13 59/30/13 55/17/13
f 8/25/14 23/31/14 22/26/14
f 24/32/15 14/33/15 25/34/15
f 9/35/16 63/36/16 59/30/16
f 10/37/17 24/32/17 23/31/17
f 14/38/18 86/39/18 25/40/18
f 66/41/19 14/42/19 12/29/19
f 63/36/20 13/43/20 67/44/20
f 26/45/21 17/46/21 27/47/21
f 49/7/22 15/48/22 3/49/22
f 20/50/23 15/48/23 26/45/23
f 78/51/24 108/52/24 107/53/24
f 73/54/25 17/46/25 15/48/25
f 74/3/26 18/55/26 78/51/26
f 77/56/27 110/57/27 17/46/27
f 20/50/28 16/2/28 4/58/28
f 26/45/29 18/55/29 16/2/29
f 13/59/30 86/39/30 67/60/30
f 23/31/31 11/61/31 9/62/31
f 11/61/32 25/34/32 13/63/32
f 22/26/33 9/62/33 7/64/33
f 5/65/34 22/26/34 7/64/34
f 1/66/35 21/14/35 5/65/35
f 28/67/36 33/68/36 34/69/36
f 3/49/37 30/4/37 28/67/37
f 92/10/38 4/58/38 50/1/38
f 93/9/39 1/70/39 47/20/39
f 20/50/40 29/71/40 30/4/40
f 31/72/41 36/73/41 32/74/41
f 1/66/42 32/74/42 19/6/42
f 19/6/43 33/68/43 30/4/43
f 1/70/44 34/75/44 31/76/44
f 38/77/45 41/78/45 42/79/45
f 34/69/46 37/80/46 38/77/46
f 32/74/47 37/80/47 33/68/47
f 31/76/48 38/81/48 35/82/48
f 42/79/49 40/83/49 39/84/49
f 36/73/50 41/78/50 37/80/50
f 35/82/51 42/85/51 39/86/51
f 35/87/52 40/83/52 36/73/52
f 50/1/53 72/88/53 46/89/53
f 94/90/54 44/91/54 91/92/54
f 90/93/55 49/7/55 93/9/55
f 92/10/56 44/94/56 48/18/56
f 79/95/57 53/96/57 44/91/57
f 51/15/58 56/97/58 52/98/58
f 53/99/59 48/18/59 44/94/59
f 47/20/60 52/98/60 43/100/60
f 61/101/61 58/22/61 57/102/61
f 81/103/62 57/104/62 53/96/62
f 57/102/63 54/27/63 53/99/63
f 65/105/64 62/28/64 61/101/64
f 59/30/65 56/97/65 55/17/65
f 83/106/66 57/104/66 82/107/66
f 84/108/67 69/109/67 65/110/67
f 63/36/68 60/111/68 59/30/68
f 84/108/69 61/112/69 83/106/69
f 86/39/70 69/113/70 85/114/70
f 69/115/71 66/41/71 65/105/71
f 63/36/72 68/116/72 64/117/72
f 87/118/73 75/119/73 71/120/73
f 71/120/74 49/7/74 45/121/74
f 80/122/75 71/120/75 45/121/75
f 75/119/76 113/123/76 114/124/76
f 75/119/77 73/54/77 71/120/77
f 74/3/78 76/125/78 72/88/78
f 88/126/79 112/127/79 113/123/79
f 72/88/80 80/122/80 46/89/80
f 76/125/81 87/118/81 72/88/81
f 68/128/82 86/39/82 85/114/82
f 64/129/83 83/106/83 60/130/83
f 64/129/84 85/131/84 84/108/84
f 60/130/85 82/107/85 56/132/85
f 52/133/86 82/107/86 81/103/86
f 43/134/87 81/103/87 79/95/87
f 90/135/88 97/136/88 94/90/88
f 45/121/89 94/90/89 80/122/89
f 46/89/90 92/10/90 50/1/90
f 43/100/91 93/9/91 47/20/91
f 80/122/92 91/92/92 46/89/92
f 100/137/93 95/138/93 96/139/93
f 96/139/94 43/134/94 79/95/94
f 97/136/95 79/95/95 94/90/95
f 43/100/96 98/140/96 90/93/96
f 102/141/97 105/142/97 101/143/97
f 98/144/98 101/143/98 97/136/98
f 101/143/99 96/139/99 97/136/99
f 95/145/100 102/146/100 98/140/100
f 106/147/101 104/148/101 105/142/101
f 105/142/102 100/137/102 101/143/102
f 99/149/103 106/150/103 102/146/103
f 104/148/104 99/151/104 100/137/104
f 111/152/105 117/153/105 110/57/105
f 108/52/106 116/154/106 115/155/106
f 113/123/107 122/156/107 114/124/107
f 112/127/108 121/157/108 113/123/108
f 27/47/109 108/52/109 18/55/109
f 77/56/110 114/124/110 111/152/110
f 78/51/111 112/127/111 76/125/111
f 17/46/112 109/158/112 27/47/112
f 119/159/113 115/155/113 116/154/113
f 119/159/113 117/153/113 118/160/113
f 119/159/113 120/161/113 89/162/113
f 122/156/113 119/159/113 118/160/113
f 107/53/114 115/155/114 89/162/114
f 111/152/115 122/156/115 118/160/115
f 107/53/116 120/161/116 112/127/116
f 109/158/117 117/153/117 116/154/117
f 50/1/118 4/58/118 16/2/118
f 30/4/119 29/71/119 2/5/119
f 49/7/120 3/49/120 28/8/120
f 92/10/121 48/18/121 2/11/121
f 19/6/122 2/5/122 6/13/122
f 51/15/123 5/21/123 7/16/123
f 48/18/124 54/27/124 6/19/124
f 47/20/125 1/70/125 5/21/125
f 58/22/126 62/28/126 10/23/126
f 21/14/127 6/13/127 8/25/127
f 54/27/128 58/22/128 8/24/128
f 62/28/129 66/41/129 12/29/129
f 7/16/130 9/35/130 59/30/130
f 8/25/131 10/37/131 23/31/131
f 24/32/132 12/163/132 14/33/132
f 9/35/133 11/164/133 63/36/133
f 10/37/134 12/163/134 24/32/134
f 14/38/135 70/165/135 86/39/135
f 66/41/136 70/166/136 14/42/136
f 63/36/137 11/164/137 13/43/137
f 26/45/138 15/48/138 17/46/138
f 49/7/139 73/54/139 15/48/139
f 20/50/140 3/49/140 15/48/140
f 78/51/141 18/55/141 108/52/141
f 73/54/142 77/56/142 17/46/142
f 74/3/143 16/2/143 18/55/143
f 77/56/144 111/152/144 110/57/144
f 20/50/145 26/45/145 16/2/145
f 26/45/146 27/47/146 18/55/146
f 13/59/147 25/40/147 86/39/147
f 23/31/148 24/32/148 11/61/148
f 11/61/149 24/32/149 25/34/149
f 22/26/150 23/31/150 9/62/150
f 5/65/151 21/14/151 22/26/151
f 1/66/152 19/6/152 21/14/152
f 28/67/153 30/4/153 33/68/153
f 3/49/154 20/50/154 30/4/154
f 92/10/155 29/12/155 4/58/155
f 93/9/156 28/8/156 1/70/156
f 20/50/157 4/58/157 29/71/157
f 31/72/158 35/87/158 36/73/158
f 1/66/159 31/72/159 32/74/159
f 19/6/160 32/74/160 33/68/160
f 1/70/161 28/8/161 34/75/161
f 38/77/162 37/80/162 41/78/162
f 34/69/163 33/68/163 37/80/163
f 32/74/164 36/73/164 37/80/164
f 31/76/165 34/75/165 38/81/165
f 42/79/166 41/78/166 40/83/166
f 36/73/167 40/83/167 41/78/167
f 35/82/168 38/81/168 42/85/168
f 35/87/169 39/84/169 40/83/169
f 50/1/170 74/3/170 72/88/170
f 94/90/171 79/95/171 44/91/171
f 90/93/172 45/121/172 49/7/172
f 92/10/173 91/167/173 44/94/173
f 79/95/174 81/103/174 53/96/174
f 51/15/175 55/17/175 56/97/175
f 53/99/176 54/27/176 48/18/176
f 47/20/177 51/15/177 52/98/177
f 61/101/178 62/28/178 58/22/178
f 81/103/179 82/107/179 57/104/179
f 57/102/180 58/22/180 54/27/180
f 65/105/181 66/41/181 62/28/181
f 59/30/182 60/111/182 56/97/182
f 83/106/183 61/112/183 57/104/183
f 84/108/184 85/131/184 69/109/184
f 63/36/185 64/117/185 60/111/185
f 84/108/186 65/110/186 61/112/186
f 86/39/187 70/165/187 69/113/187
f 69/115/188 70/166/188 66/41/188
f 63/36/189 67/44/189 68/116/189
f 87/118/190 88/126/190 75/119/190
f 71/120/191 73/54/191 49/7/191
f 80/122/192 87/118/192 71/120/192
f 75/119/193 88/126/193 113/123/193
f 75/119/194 77/56/194 73/54/194
f 74/3/195 78/51/195 76/125/195
f 88/126/196 76/125/196 112/127/196
f 72/88/197 87/118/197 80/122/197
f 76/125/198 88/126/198 87/118/198
f 68/128/199 67/60/199 86/39/199
f 64/129/200 84/108/200 83/106/200
f 64/129/201 68/168/201 85/131/201
f 60/130/202 83/106/202 82/107/202
f 52/133/203 56/132/203 82/107/203
f 43/134/204 52/133/204 81/103/204
f 90/135/205 98/144/205 97/136/205
f 45/121/206 90/135/206 94/90/206
f 46/89/207 91/167/207 92/10/207
f 43/100/208 90/93/208 93/9/208
f 80/122/209 94/90/209 91/92/209
f 100/137/210 99/151/210 95/138/210
f 96/139/211 95/138/211 43/134/211
f 97/136/212 96/139/212 79/95/212
f 43/100/213 95/145/213 98/140/213
f 102/141/214 106/147/214 105/142/214
f 98/144/215 102/141/215 101/143/215
f 101/143/216 100/137/216 96/139/216
f 95/145/217 99/149/217 102/146/217
f 106/147/218 103/169/218 104/148/218
f 105/142/219 104/148/219 100/137/219
f 99/149/220 103/170/220 106/150/220
f 104/148/221 103/169/221 99/151/221
f 111/152/222 118/160/222 117/153/222
f 108/52/223 109/158/223 116/154/223
f 113/123/224 121/157/224 122/156/224
f 112/127/225 120/161/225 121/157/225
f 27/47/226 109/158/226 108/52/226
f 77/56/227 75/119/227 114/124/227
f 78/51/228 107/53/228 112/127/228
f 17/46/229 110/57/229 109/158/229
f 119/159/113 89/162/113 115/155/113
f 119/159/113 116/154/113 117/153/113
f 119/159/113 121/157/113 120/161/113
f 122/156/113 121/157/113 119/159/113
f 107/53/230 108/52/230 115/155/230
f 111/152/231 114/124/231 122/156/231
f 107/53/232 89/162/232 120/161/232
f 109/158/233 110/57/233 117/153/233
