# Blender v2.79 (sub 0) OBJ File: ''
# www.blender.org
mtllib waterelement.mtl
o Icosphere_Icosphere.001
v 0.000000 -1.000000 0.000000
v 0.723600 -0.447215 0.525720
v -0.276385 -0.447215 0.850640
v -0.894425 -0.447215 0.000000
v -0.276385 -0.447215 -0.850640
v 0.723600 -0.447215 -0.525720
v 0.276385 0.447215 0.850640
v -0.723600 0.447215 0.525720
v -0.723600 0.447215 -0.525720
v 0.276385 0.447215 -0.850640
v 0.894425 0.447215 0.000000
v 0.000000 1.000000 0.000000
v -0.276385 -0.447215 0.850640
v 0.000000 -1.000000 0.000000
v 0.723600 -0.447215 0.525720
v 0.723600 -0.447215 -0.525720
v -0.894425 -0.447215 0.000000
v -0.276385 -0.447215 -0.850640
v 0.894425 0.447215 0.000000
v 0.276385 0.447215 0.850640
v -0.723600 0.447215 0.525720
v -0.723600 0.447215 -0.525720
v 0.276385 0.447215 -0.850640
v 0.000000 1.000000 0.000000
v -0.276385 -0.447215 0.850640
v 0.000000 -1.000000 0.000000
v 0.723600 -0.447215 0.525720
v 0.723600 -0.447215 -0.525720
v -0.894425 -0.447215 0.000000
v -0.276385 -0.447215 -0.850640
v 0.894425 0.447215 0.000000
v 0.276385 0.447215 0.850640
v -0.723600 0.447215 0.525720
v -0.723600 0.447215 -0.525720
v 0.276385 0.447215 -0.850640
v 0.000000 1.000000 0.000000
v 0.142114 -0.926935 0.493190
v 0.368210 -0.828977 0.651248
v 0.116036 -0.897368 0.783265
v 0.772142 -0.893186 0.138477
v 0.546046 -0.991144 -0.019582
v 0.708727 -0.768951 -0.118895
v -0.456126 -0.931461 0.262342
v -0.482204 -0.901894 0.552417
v -0.701476 -0.819926 0.376634
v -0.421923 -0.998467 -0.393106
v -0.667273 -0.886932 -0.278815
v -0.550610 -0.767882 -0.519471
v 0.197455 -1.035352 -0.567341
v 0.068769 -0.804768 -0.693706
v 0.360136 -0.813160 -0.666655
v 1.110661 -0.347240 0.095350
v 1.047246 -0.223006 -0.162022
v 1.121711 -0.056114 0.066673
v 0.204909 -0.311737 1.057046
v 0.457083 -0.243346 0.925030
v 0.351469 -0.071269 1.137009
v -0.982332 -0.237092 0.507743
v -0.763060 -0.319059 0.683527
v -0.907867 -0.070200 0.736438
v -0.810327 -0.226459 -0.793448
v -0.926990 -0.345509 -0.552791
v -0.915941 -0.054382 -0.581469
v 0.483212 -0.294535 -1.048315
v 0.191844 -0.286143 -1.075367
v 0.338404 -0.045675 -0.995404
v 0.915941 0.054382 0.581469
v 0.926990 0.345509 0.552791
v 0.810327 0.226459 0.793448
v -0.338404 0.045675 0.995404
v -0.191844 0.286143 1.075367
v -0.483212 0.294535 1.048315
v -1.121711 0.056114 -0.066673
v -1.047246 0.223006 0.162022
v -1.110661 0.347240 -0.095350
v -0.351469 0.071269 -1.137009
v -0.457083 0.243346 -0.925030
v -0.204909 0.311737 -1.057046
v 0.907867 0.070200 -0.736438
v 0.763060 0.319059 -0.683527
v 0.982332 0.237092 -0.507743
v 0.550610 0.767882 0.519471
v 0.667273 0.886932 0.278815
v 0.421923 0.998467 0.393106
v -0.360136 0.813160 0.666655
v -0.068769 0.804768 0.693706
v -0.197455 1.035352 0.567341
v -0.772142 0.893186 -0.138477
v -0.708727 0.768951 0.118895
v -0.546046 0.991144 0.019582
v -0.116036 0.897368 -0.783265
v -0.368210 0.828977 -0.651248
v -0.142114 0.926935 -0.493190
v 0.701476 0.819926 -0.376634
v 0.482204 0.901894 -0.552417
v 0.456126 0.931461 -0.262342
vt 0.000000 0.000000
vt 1.000000 0.000000
vt 1.000000 1.000000
vt 0.000000 0.000000
vt 1.000000 0.000000
vt 1.000000 1.000000
vt 1.000000 0.000000
vt 1.000000 1.000000
vt 1.000000 0.000000
vt 1.000000 1.000000
vt 1.000000 1.000000
vt 1.000000 0.000000
vt 1.000000 1.000000
vt 0.000000 0.000000
vt 1.000000 0.000000
vt 0.000000 0.000000
vt 1.000000 0.000000
vt 0.000000 0.000000
vt 1.000000 0.000000
vt 0.000000 0.000000
vt 1.000000 0.000000
vt 1.000000 1.000000
vt 1.000000 1.000000
vt 1.000000 1.000000
vt 1.000000 1.000000
vt 1.000000 1.000000
vt 0.000000 0.000000
vt 1.000000 0.000000
vt 0.000000 0.000000
vt 0.000000 0.000000
vt 0.000000 0.000000
vt 0.000000 0.000000
vt 0.000000 0.000000
vt 1.000000 0.000000
vt 1.000000 1.000000
vt 0.000000 0.000000
vt 1.000000 0.000000
vt 1.000000 1.000000
vt 1.000000 0.000000
vt 1.000000 1.000000
vt 1.000000 0.000000
vt 1.000000 1.000000
vt 1.000000 1.000000
vt 1.000000 0.000000
vt 1.000000 1.000000
vt 0.000000 0.000000
vt 1.000000 0.000000
vt 0.000000 0.000000
vt 1.000000 0.000000
vt 0.000000 0.000000
vt 1.000000 0.000000
vt 0.000000 0.000000
vt 1.000000 0.000000
vt 1.000000 1.000000
vt 1.000000 1.000000
vt 1.000000 1.000000
vt 1.000000 1.000000
vt 1.000000 1.000000
vt 0.000000 0.000000
vt 1.000000 0.000000
vt 0.000000 0.000000
vt 0.000000 0.000000
vt 0.000000 0.000000
vt 0.000000 0.000000
vt 0.000000 0.000000
vt 1.000000 0.000000
vt 1.000000 1.000000
vt 0.000000 0.000000
vt 1.000000 1.000000
vt 0.000000 1.000000
vt 0.000000 0.000000
vt 1.000000 0.000000
vt 1.000000 1.000000
vt 0.000000 1.000000
vt 0.000000 0.000000
vt 1.000000 0.000000
vt 0.000000 1.000000
vt 0.000000 0.000000
vt 1.000000 0.000000
vt 1.000000 1.000000
vt 1.000000 1.000000
vt 0.000000 0.000000
vt 1.000000 0.000000
vt 1.000000 1.000000
vt 1.000000 0.000000
vt 0.000000 1.000000
vt 0.000000 0.000000
vt 1.000000 0.000000
vt 1.000000 1.000000
vt 1.000000 1.000000
vt 0.000000 0.000000
vt 1.000000 0.000000
vt 1.000000 1.000000
vt 1.000000 0.000000
vt 0.000000 1.000000
vt 0.000000 0.000000
vt 1.000000 0.000000
vt 1.000000 1.000000
vt 1.000000 1.000000
vt 0.000000 0.000000
vt 1.000000 0.000000
vt 1.000000 1.000000
vt 1.000000 0.000000
vt 0.000000 1.000000
vt 0.000000 0.000000
vt 1.000000 0.000000
vt 1.000000 1.000000
vt 1.000000 1.000000
vt 1.000000 0.000000
vt 1.000000 1.000000
vt 1.000000 0.000000
vt 0.000000 0.000000
vt 1.000000 0.000000
vt 1.000000 1.000000
vt 1.000000 1.000000
vt 0.000000 0.000000
vt 1.000000 0.000000
vt 1.000000 1.000000
vt 1.000000 0.000000
vt 0.000000 1.000000
vt 0.000000 0.000000
vt 1.000000 0.000000
vt 1.000000 1.000000
vt 1.000000 1.000000
vt 0.000000 0.000000
vt 1.000000 0.000000
vt 1.000000 1.000000
vt 1.000000 0.000000
vt 0.000000 1.000000
vt 0.000000 0.000000
vt 1.000000 0.000000
vt 1.000000 1.000000
vt 1.000000 1.000000
vt 0.000000 0.000000
vt 1.000000 0.000000
vt 1.000000 1.000000
vt 1.000000 0.000000
vt 0.000000 1.000000
vt 0.000000 0.000000
vt 1.000000 0.000000
vt 1.000000 1.000000
vt 1.000000 1.000000
vt 0.000000 0.000000
vt 1.000000 0.000000
vt 1.000000 1.000000
vt 1.000000 0.000000
vt 0.000000 1.000000
vt 0.000000 0.000000
vt 1.000000 0.000000
vt 1.000000 1.000000
vt 1.000000 1.000000
vt 0.000000 0.000000
vt 1.000000 0.000000
vt 1.000000 1.000000
vt 1.000000 0.000000
vt 0.000000 1.000000
vt 0.000000 0.000000
vt 1.000000 0.000000
vt 1.000000 1.000000
vt 1.000000 1.000000
vt 1.000000 0.000000
vt 1.000000 1.000000
vt 1.000000 0.000000
vt 0.000000 0.000000
vt 1.000000 0.000000
vt 1.000000 1.000000
vt 1.000000 1.000000
vt 1.000000 0.000000
vt 1.000000 1.000000
vt 1.000000 0.000000
vt 0.000000 0.000000
vt 1.000000 0.000000
vt 1.000000 1.000000
vt 1.000000 1.000000
vt 1.000000 0.000000
vt 1.000000 1.000000
vt 1.000000 0.000000
vt 0.000000 0.000000
vt 1.000000 0.000000
vt 1.000000 1.000000
vt 1.000000 1.000000
vt 1.000000 0.000000
vt 1.000000 1.000000
vt 1.000000 0.000000
vt 0.000000 0.000000
vt 1.000000 0.000000
vt 1.000000 1.000000
vt 1.000000 1.000000
vt 1.000000 0.000000
vt 1.000000 1.000000
vt 1.000000 0.000000
vt 0.000000 0.000000
vt 1.000000 0.000000
vt 1.000000 1.000000
vt 1.000000 1.000000
vt 0.000000 0.000000
vt 1.000000 0.000000
vt 1.000000 1.000000
vt 1.000000 0.000000
vt 0.000000 1.000000
vt 0.000000 0.000000
vt 1.000000 0.000000
vt 1.000000 1.000000
vt 1.000000 1.000000
vt 1.000000 0.000000
vt 1.000000 1.000000
vt 1.000000 0.000000
vt 0.000000 0.000000
vt 1.000000 0.000000
vt 1.000000 1.000000
vt 1.000000 1.000000
vt 1.000000 0.000000
vt 1.000000 1.000000
vt 1.000000 0.000000
vt 0.000000 0.000000
vt 1.000000 0.000000
vt 1.000000 1.000000
vt 1.000000 1.000000
vt 1.000000 0.000000
vt 1.000000 1.000000
vt 1.000000 0.000000
vt 0.000000 0.000000
vt 1.000000 0.000000
vt 1.000000 1.000000
vt 1.000000 1.000000
vt 1.000000 0.000000
vt 1.000000 1.000000
vt 1.000000 0.000000
vn -0.1876 0.7947 -0.5774
vn -0.6071 0.7947 0.0000
vn 0.4911 0.7947 -0.3568
vn 0.4911 0.7947 0.3568
vn -0.1876 0.7947 0.5774
vn -0.9822 0.1876 0.0000
vn -0.3035 0.1876 -0.9342
vn 0.7946 0.1876 -0.5774
vn 0.7946 0.1876 0.5774
vn -0.3035 0.1876 0.9342
vn -0.7946 -0.1876 -0.5774
vn 0.3035 -0.1876 -0.9342
vn 0.9822 -0.1876 0.0000
vn 0.3035 -0.1876 0.9342
vn -0.7946 -0.1876 0.5774
vn -0.4911 -0.7947 -0.3568
vn 0.1876 -0.7947 -0.5774
vn 0.6071 -0.7947 0.0000
vn 0.1876 -0.7947 0.5774
vn -0.4911 -0.7947 0.3568
vn 0.3199 -0.9392 0.1245
vn 0.6335 -0.7571 -0.1594
vn 0.3378 0.0806 0.9378
vn -0.6636 -0.7227 0.1930
vn 0.6043 -0.6490 -0.4622
vn -0.0303 -0.7027 0.7108
vn 0.1077 -0.6959 -0.7100
vn 0.9981 0.0426 -0.0443
vn -0.3904 -0.9188 0.0586
vn 0.4165 -0.7603 0.4986
vn -0.7700 0.0721 0.6339
vn -0.4662 -0.7088 -0.5294
vn -0.5450 -0.6159 -0.5689
vn -0.3658 -0.7275 0.5805
vn -0.8301 0.0130 -0.5574
vn 0.3578 -0.6505 -0.6699
vn 0.0698 -0.4492 -0.8907
vn -0.6873 -0.6786 -0.2591
vn 0.2627 -0.0280 -0.9645
vn 0.7222 -0.6606 0.2050
vn 0.9616 -0.0628 -0.2673
vn 0.4044 -0.9084 -0.1058
vn 0.6782 0.3151 -0.6638
vn 0.6115 0.2563 0.7486
vn 0.5014 -0.5324 0.6820
vn 0.2026 -0.8832 0.4230
vn 0.8871 0.2723 0.3726
vn -0.5283 0.2688 0.8054
vn -0.6479 -0.4993 0.5753
vn -0.3825 -0.8921 0.2408
vn -0.0549 0.2041 0.9774
vn -0.9154 0.3513 -0.1965
vn -0.8980 -0.0092 -0.4399
vn -0.2739 -0.9187 -0.2846
vn -0.9515 0.2374 0.1956
vn -0.1494 0.3817 -0.9121
vn 0.0967 0.2605 -0.9606
vn 0.0925 -0.9278 -0.3613
vn -0.4051 0.3102 -0.8600
vn 0.8486 0.3438 -0.4021
vn 0.8980 0.0092 0.4399
vn 0.9515 -0.2374 -0.1956
vn 0.2739 0.9187 0.2846
vn 0.1494 -0.3817 0.9121
vn -0.0967 -0.2605 0.9606
vn 0.4051 -0.3102 0.8600
vn -0.0925 0.9278 0.3613
vn -0.8486 -0.3438 0.4021
vn -0.9616 0.0628 0.2673
vn -0.6782 -0.3151 0.6638
vn -0.4044 0.9084 0.1058
vn -0.6115 -0.2563 -0.7486
vn -0.5014 0.5324 -0.6820
vn -0.8871 -0.2723 -0.3726
vn -0.2026 0.8832 -0.4230
vn 0.5283 -0.2688 -0.8054
vn 0.6479 0.4993 -0.5753
vn 0.0549 -0.2041 -0.9774
vn 0.3825 0.8921 -0.2408
vn 0.9154 -0.3513 0.1965
vn 0.5450 0.6159 0.5689
vn 0.8301 -0.0130 0.5574
vn 0.3658 0.7275 -0.5805
vn -0.3578 0.6505 0.6699
vn -0.0698 0.4492 0.8907
vn -0.2627 0.0280 0.9645
vn 0.6873 0.6786 0.2591
vn -0.7222 0.6606 -0.2050
vn -0.6043 0.6490 0.4622
vn -0.9981 -0.0426 0.0443
vn -0.1077 0.6959 0.7100
vn 0.0303 0.7027 -0.7108
vn -0.3199 0.9392 -0.1245
vn -0.3378 -0.0806 -0.9378
vn -0.6335 0.7571 0.1594
vn 0.6636 0.7227 -0.1930
vn 0.3904 0.9188 -0.0586
vn 0.7700 -0.0721 -0.6339
vn -0.4165 0.7603 -0.4986
vn 0.4662 0.7088 0.5294
usemtl None
s off
f 1/1/1 3/2/1 2/3/1
f 2/4/2 6/5/2 1/6/2
f 1/1/3 4/7/3 3/8/3
f 1/1/4 5/9/4 4/10/4
f 1/1/5 6/5/5 5/11/5
f 2/4/6 11/12/6 6/13/6
f 3/14/7 7/15/7 2/3/7
f 4/16/8 8/17/8 3/8/8
f 5/18/9 9/19/9 4/10/9
f 6/20/10 10/21/10 5/11/10
f 2/4/11 7/15/11 11/22/11
f 3/14/12 8/17/12 7/23/12
f 4/16/13 9/19/13 8/24/13
f 5/18/14 10/21/14 9/25/14
f 6/20/15 11/12/15 10/26/15
f 7/27/16 12/28/16 11/22/16
f 8/29/17 12/28/17 7/23/17
f 9/30/18 12/28/18 8/24/18
f 10/31/19 12/28/19 9/25/19
f 11/32/20 12/28/20 10/26/20
f 14/33/1 13/34/1 15/35/1
f 15/36/2 16/37/2 14/38/2
f 14/33/3 17/39/3 13/40/3
f 14/33/4 18/41/4 17/42/4
f 14/33/5 16/37/5 18/43/5
f 15/36/6 19/44/6 16/45/6
f 13/46/7 20/47/7 15/35/7
f 17/48/8 21/49/8 13/40/8
f 18/50/9 22/51/9 17/42/9
f 16/52/10 23/53/10 18/43/10
f 15/36/11 20/47/11 19/54/11
f 13/46/12 21/49/12 20/55/12
f 17/48/13 22/51/13 21/56/13
f 18/50/14 23/53/14 22/57/14
f 16/52/15 19/44/15 23/58/15
f 20/59/16 24/60/16 19/54/16
f 21/61/17 24/60/17 20/55/17
f 22/62/18 24/60/18 21/56/18
f 23/63/19 24/60/19 22/57/19
f 19/64/20 24/60/20 23/58/20
f 37/65/21 38/66/21 39/67/21
f 27/68/22 38/66/22 37/69/22 26/70/22
f 25/71/23 39/72/23 38/73/23 27/74/23
f 26/75/24 37/76/24 39/67/24 25/77/24
f 40/78/25 41/79/25 42/80/25
f 26/75/26 41/79/26 40/81/26 27/74/26
f 28/82/27 42/83/27 41/84/27 26/70/27
f 27/68/28 40/85/28 42/80/28 28/86/28
f 43/87/29 44/88/29 45/89/29
f 25/71/30 44/88/30 43/90/30 26/70/30
f 29/91/31 45/92/31 44/93/31 25/77/31
f 26/75/32 43/94/32 45/89/32 29/95/32
f 46/96/33 47/97/33 48/98/33
f 29/91/34 47/97/34 46/99/34 26/70/34
f 30/100/35 48/101/35 47/102/35 29/95/35
f 26/75/36 46/103/36 48/98/36 30/104/36
f 49/105/37 50/106/37 51/107/37
f 30/100/38 50/106/38 49/108/38 26/70/38
f 28/82/39 51/109/39 50/110/39 30/104/39
f 26/75/40 49/111/40 51/107/40 28/86/40
f 52/112/41 53/113/41 54/114/41
f 28/82/42 53/113/42 52/115/42 27/74/42
f 31/116/43 54/117/43 53/118/43 28/86/43
f 27/68/44 52/119/44 54/114/44 31/120/44
f 55/121/45 56/122/45 57/123/45
f 27/68/46 56/122/46 55/124/46 25/77/46
f 32/125/47 57/126/47 56/127/47 27/74/47
f 25/71/48 55/128/48 57/123/48 32/129/48
f 58/130/49 59/131/49 60/132/49
f 25/71/50 59/131/50 58/133/50 29/95/50
f 33/134/51 60/135/51 59/136/51 25/77/51
f 29/91/52 58/137/52 60/132/52 33/138/52
f 61/139/53 62/140/53 63/141/53
f 29/91/54 62/140/54 61/142/54 30/104/54
f 34/143/55 63/144/55 62/145/55 29/95/55
f 30/100/56 61/146/56 63/141/56 34/147/56
f 64/148/57 65/149/57 66/150/57
f 30/100/58 65/149/58 64/151/58 28/86/58
f 35/152/59 66/153/59 65/154/59 30/104/59
f 28/82/60 64/155/60 66/150/60 35/156/60
f 67/157/61 68/158/61 69/159/61
f 31/116/62 68/158/62 67/160/62 27/74/62
f 32/125/63 69/161/63 68/162/63 31/120/63
f 27/68/64 67/163/64 69/159/64 32/129/64
f 70/164/65 71/165/65 72/166/65
f 32/125/66 71/165/66 70/167/66 25/77/66
f 33/134/67 72/168/67 71/169/67 32/129/67
f 25/71/68 70/170/68 72/166/68 33/138/68
f 73/171/69 74/172/69 75/173/69
f 33/134/70 74/172/70 73/174/70 29/95/70
f 34/143/71 75/175/71 74/176/71 33/138/71
f 29/91/72 73/177/72 75/173/72 34/147/72
f 76/178/73 77/179/73 78/180/73
f 34/143/74 77/179/74 76/181/74 30/104/74
f 35/152/75 78/182/75 77/183/75 34/147/75
f 30/100/76 76/184/76 78/180/76 35/156/76
f 79/185/77 80/186/77 81/187/77
f 35/152/78 80/186/78 79/188/78 28/86/78
f 31/116/79 81/189/79 80/190/79 35/156/79
f 28/82/80 79/191/80 81/187/80 31/120/80
f 82/192/81 83/193/81 84/194/81
f 31/116/82 83/193/82 82/195/82 32/129/82
f 36/196/83 84/197/83 83/198/83 31/120/83
f 32/125/84 82/199/84 84/194/84 36/200/84
f 85/201/85 86/202/85 87/203/85
f 32/125/86 86/202/86 85/204/86 33/138/86
f 36/196/87 87/205/87 86/206/87 32/129/87
f 33/134/88 85/207/88 87/203/88 36/200/88
f 88/208/89 89/209/89 90/210/89
f 33/134/90 89/209/90 88/211/90 34/147/90
f 36/196/91 90/212/91 89/213/91 33/138/91
f 34/143/92 88/214/92 90/210/92 36/200/92
f 91/215/93 92/216/93 93/217/93
f 34/143/94 92/216/94 91/218/94 35/156/94
f 36/196/95 93/219/95 92/220/95 34/147/95
f 35/152/96 91/221/96 93/217/96 36/200/96
f 94/222/97 95/223/97 96/224/97
f 35/152/98 95/223/98 94/225/98 31/120/98
f 36/196/99 96/226/99 95/227/99 35/156/99
f 31/116/100 94/228/100 96/224/100 36/200/100
